<svg width="16" height="16" viewBox="0 0 16 16" fill="none" xmlns="http://www.w3.org/2000/svg">
<path d="M12.9261 6.16993C12.897 6.11863 12.8548 6.07595 12.8039 6.04626C12.7529 6.01657 12.695 6.00093 12.6361 6.00093H8.26939L9.00147 0.407345C9.00933 0.332484 8.99176 0.257157 8.9516 0.193493C8.91144 0.12983 8.85102 0.0815332 8.78008 0.0563804C8.70913 0.0312277 8.63179 0.0306822 8.56049 0.0548318C8.4892 0.0789815 8.42811 0.126421 8.38705 0.189512L3.07672 9.49301C3.04567 9.54352 3.02865 9.6014 3.02742 9.66067C3.02618 9.71995 3.04079 9.77848 3.06972 9.83024C3.09864 9.88199 3.14085 9.92509 3.19199 9.9551C3.24313 9.9851 3.30135 10.0009 3.36064 10.0009H7.66205L7.08189 15.6029C7.07619 15.6775 7.0956 15.7519 7.13704 15.8142C7.17847 15.8765 7.23956 15.9231 7.31056 15.9467C7.38157 15.9703 7.45843 15.9695 7.5289 15.9443C7.59937 15.9192 7.65941 15.8712 7.69947 15.808L12.9221 6.50551C12.9523 6.45493 12.9687 6.39721 12.9694 6.33826C12.9701 6.27931 12.9551 6.22122 12.9261 6.16993Z" fill="#772286"/>
</svg>
