<svg width="36" height="36" viewBox="0 0 36 36" fill="none" xmlns="http://www.w3.org/2000/svg">
<path d="M24.1271 20.5843H11.2623C8.0492 20.5843 6.29083 16.8398 8.34304 14.3673L8.45715 14.2298C9.36123 13.1406 9.85609 11.7695 9.85609 10.354V7.87317C9.85616 3.52491 13.3811 0 17.7293 0C22.0776 0 25.6025 3.52491 25.6025 7.87317V10.4377C25.6025 11.8681 26.1078 13.2525 27.0291 14.3466C29.107 16.814 27.3529 20.5843 24.1271 20.5843Z" fill="#AC7474"/>
<path d="M30.8897 26.9597V35.4647H4.5V27.0237C4.5 25.1126 5.64539 23.3878 7.40601 22.6467L11.6662 20.7947L13.1006 20.171C14.1891 19.6978 14.8929 18.6241 14.8929 17.4373V16.8867H20.4961V17.4091C20.4961 18.6009 21.207 19.6788 22.3031 20.1485L28.0652 22.6186C29.7823 23.3794 30.8897 25.0809 30.8897 26.9597Z" fill="white"/>
<path d="M11.6659 22.8224C13.1199 23.2568 15.26 23.7202 17.8687 23.6745C20.3163 23.6318 22.3256 23.1559 23.7237 22.7093L24.4184 21.0551L22.3029 20.1484C21.207 19.6786 20.4965 18.6011 20.4965 17.4087V16.8867H14.8933V17.4371C14.8933 18.6239 14.1893 19.6975 13.1011 20.1707L11.3877 20.9156L11.6659 22.8224Z" fill="#FFCEBF"/>
<path d="M28.0649 22.6182L23.7244 20.7578L23.7236 20.7579V35.4645H30.8897V26.9597C30.8897 25.0812 29.7824 23.3793 28.0649 22.6182Z" fill="#772286"/>
<path d="M11.6663 20.793V35.463H4.5V27.022C4.5 25.1109 5.64539 23.3861 7.40602 22.645L11.6663 20.793Z" fill="#772286"/>
<path d="M19.637 19.9621C20.2816 19.9621 20.8959 19.8327 21.4558 19.5991C20.8552 19.0447 20.4963 18.2558 20.4963 17.4087V16.8867H14.8931V17.4371C14.8931 17.8657 14.8008 18.2795 14.6321 18.6557C15.4805 19.4645 16.6284 19.962 17.8931 19.962H19.637V19.9621Z" fill="#FFB09E"/>
<path d="M23.2949 8.45884V13.0942C23.2949 15.7056 21.1779 17.8225 18.5666 17.8225H16.8228C14.2114 17.8225 12.0945 15.7055 12.0945 13.0942V8.45884C12.0945 6.76002 13.4716 5.38281 15.1705 5.38281H20.219C21.9178 5.38288 23.2949 6.76002 23.2949 8.45884Z" fill="#FFCEBF"/>
<path d="M23.2949 10.8711C23.2928 10.8775 23.2902 10.8837 23.2883 10.8902C23.1173 11.4805 22.6687 12.5955 21.5847 13.4315C21.0799 13.8208 20.5041 14.102 19.8734 14.2675C19.5875 14.3426 19.4165 14.6351 19.4915 14.921C19.5547 15.1614 19.7714 15.3205 20.0089 15.3205C20.0538 15.3205 20.0995 15.3148 20.1451 15.3029C20.9151 15.1008 21.6194 14.7564 22.2384 14.2791C22.6658 13.9495 23.0117 13.5854 23.2918 13.2194C23.2928 13.1779 23.2949 13.1366 23.2949 13.0949V10.8711H23.2949Z" fill="#7A6D79"/>
<path d="M19.2866 15.747H18.0324C17.4616 15.747 16.9988 15.2842 16.9988 14.7134C16.9988 14.1425 17.4616 13.6797 18.0324 13.6797H19.2866C19.8575 13.6797 20.3203 14.1425 20.3203 14.7134C20.3202 15.2843 19.8575 15.747 19.2866 15.747Z" fill="#685E68"/>
<path d="M18.8122 4.15352C18.9323 2.63899 20.3823 1.63388 21.7701 1.11328C24.0657 2.4888 25.6026 5.00044 25.6026 7.87137V8.41263C25.4757 8.43928 25.3494 8.46263 25.2245 8.48126C24.46 8.59545 23.809 8.54602 23.3642 8.48126C20.498 8.09946 18.6672 5.9827 18.8122 4.15352Z" fill="#965252"/>
<path d="M17.7293 0C19.5074 0 21.1476 0.589641 22.4656 1.58379C21.8081 2.72784 20.2984 4.9898 17.4674 6.66436C15.3657 7.90755 13.3841 8.32528 12.1637 8.48299H9.8562V7.8731C9.85613 3.52491 13.381 0 17.7293 0V0Z" fill="#AC7474"/>
<path d="M26.5302 35.4643H9.39827L8.45334 26.5504C8.38634 25.9182 8.88197 25.3672 9.51773 25.3672H26.4108C27.0466 25.3672 27.5422 25.9182 27.4752 26.5504L26.5302 35.4643Z" fill="#EFEDEF"/>
<path d="M26.4112 25.3672H24.2705C24.9063 25.3672 25.4019 25.9182 25.3349 26.5504L24.39 35.4643H26.5307L27.4756 26.5504C27.5427 25.9182 27.0471 25.3672 26.4112 25.3672Z" fill="#E5E1E5"/>
<path d="M17.9643 31.915C18.7919 31.915 19.4628 31.2441 19.4628 30.4165C19.4628 29.5889 18.7919 28.918 17.9643 28.918C17.1367 28.918 16.4658 29.5889 16.4658 30.4165C16.4658 31.2441 17.1367 31.915 17.9643 31.915Z" fill="#C9BFC8"/>
</svg>
