<svg width="17" height="14" viewBox="0 0 17 14" fill="none" xmlns="http://www.w3.org/2000/svg">
<path d="M15.1667 5.83328H3.5L7.33833 1.99495C7.44768 1.88649 7.53448 1.75746 7.59371 1.61529C7.65294 1.47312 7.68343 1.32063 7.68343 1.16661C7.68343 1.0126 7.65294 0.860111 7.59371 0.717942C7.53448 0.575773 7.44768 0.446738 7.33833 0.338281C7.11974 0.120989 6.82405 -0.000976562 6.51583 -0.000976562C6.20762 -0.000976562 5.91192 0.120989 5.69333 0.338281L0.688334 5.35495C0.250148 5.79052 0.00260492 6.38211 0 6.99995C0.00567769 7.61374 0.252985 8.20057 0.688334 8.63328L5.69333 13.65C5.80211 13.758 5.9311 13.8435 6.07293 13.9017C6.21477 13.9598 6.36666 13.9895 6.51996 13.9889C6.67325 13.9884 6.82494 13.9577 6.96636 13.8985C7.10778 13.8393 7.23616 13.7529 7.34417 13.6441C7.45218 13.5353 7.53771 13.4063 7.59587 13.2645C7.65403 13.1227 7.68369 12.9708 7.68315 12.8175C7.68261 12.6642 7.65188 12.5125 7.59272 12.3711C7.53355 12.2297 7.44711 12.1013 7.33833 11.9933L3.5 8.16662H15.1667C15.4761 8.16662 15.7728 8.0437 15.9916 7.82491C16.2104 7.60611 16.3333 7.30937 16.3333 6.99995C16.3333 6.69053 16.2104 6.39378 15.9916 6.17499C15.7728 5.9562 15.4761 5.83328 15.1667 5.83328Z" fill="white"/>
</svg>
