<svg width="20" height="20" viewBox="0 0 20 20" fill="none" xmlns="http://www.w3.org/2000/svg">
<path d="M10.0689 18.1932L0 7.02305L3.49797 1.80859H16.4847L19.9759 7.01308L10.0689 18.1932Z" fill="#FF3997"/>
<path d="M10.0713 18.1904L19.9757 7.01309L16.4846 1.80859H10.0713V18.1904Z" fill="#D6298C"/>
<path d="M0 7.02148L10.0689 18.1916L19.9479 7.04336L0 7.02148Z" fill="#FF5CA8"/>
<path d="M10.0713 7.0332V18.1895L19.9477 7.04402L10.0713 7.0332Z" fill="#FF3997"/>
<path d="M10.0687 18.1932L5.92676 7.04492H14.0727L10.0687 18.1932Z" fill="#FF3997"/>
<path d="M14.0727 7.04492H5.92676L10.0714 1.80859L14.0727 7.04492Z" fill="#D6298C"/>
<path d="M0 7.02305L5.92703 7.04492L3.49797 1.80859L0 7.02305Z" fill="#D6298C"/>
<path d="M20.0003 7.02305L14.0732 7.04492L16.5023 1.80859L20.0003 7.02305Z" fill="#FF5CA8"/>
<path d="M10.0713 7.04492V18.1863L14.0729 7.04492H10.0713Z" fill="#D6298C"/>
<path d="M10.0713 1.80859V7.04449H14.0729L10.0713 1.80859Z" fill="#BF1B81"/>
<path d="M20.0003 7.02305L14.0732 7.04492L16.5023 1.80859L20.0003 7.02305Z" fill="#BF1B81"/>
</svg>
