<svg width="12" height="20" viewBox="0 0 12 20" fill="none" xmlns="http://www.w3.org/2000/svg">
<path d="M4.78906 1.78711H7.12727V4.04189H4.78906V1.78711Z" fill="#00DD80"/>
<path d="M4.79004 1.78711H5.79662V4.04189H4.79004V1.78711Z" fill="#00AA63"/>
<path d="M9.09021 6.12828V4.50864C9.09021 4.11658 8.77246 3.79883 8.3804 3.79883H3.53696C3.1449 3.79883 2.82715 4.11658 2.82715 4.50864V6.12828H9.09021Z" fill="#00DD80"/>
<path d="M4.54358 3.79883C4.1514 3.79883 3.83373 4.11689 3.83373 4.50868V6.12847H2.82715V4.50868C2.82715 4.11689 3.14482 3.79883 3.537 3.79883H4.54358Z" fill="#00AA63"/>
<path d="M11.0736 8.38994V9.62402L9.3271 12.6126L11.0736 16.4717V19.487C11.0736 19.7701 10.8441 19.9996 10.561 19.9996H1.35632C1.07327 19.9996 0.84375 19.7701 0.84375 19.487V16.4717L1.45446 12.9624L0.84375 9.62402V8.38994C0.84375 7.12283 1.87087 6.0957 3.13798 6.0957H8.77935C10.0465 6.0957 11.0736 7.12283 11.0736 8.38994V8.38994Z" fill="#00DD80"/>
<path d="M1.85033 8.38994V19.4871C1.85033 19.7701 2.07985 19.9996 2.3629 19.9996H1.35632C1.07327 19.9996 0.84375 19.7701 0.84375 19.4871V16.4717L1.45446 12.9624L0.84375 9.64059V8.38994C0.84375 7.12283 1.87087 6.0957 3.13798 6.0957H4.14457C2.87746 6.0957 1.85033 7.12283 1.85033 8.38994V8.38994Z" fill="#00AA63"/>
<path d="M1.43945 9.625H11.0734V16.4727H1.43945V9.625Z" fill="#A6E7F0"/>
<path d="M5.95861 16.9211C8.09742 16.9211 9.83128 15.1873 9.83128 13.0485C9.83128 10.9096 8.09742 9.17578 5.95861 9.17578C3.81979 9.17578 2.08594 10.9096 2.08594 13.0485C2.08594 15.1873 3.81979 16.9211 5.95861 16.9211Z" fill="#F7F8F4"/>
<path d="M10.8999 1.92069H3.06412C2.92192 1.92069 2.80664 1.80542 2.80664 1.66322V0.257475C2.80664 0.115275 2.92192 0 3.06412 0L10.8999 0.459275C11.0421 0.459275 11.1574 0.57455 11.1574 0.71675V1.66318C11.1574 1.80542 11.0421 1.92069 10.8999 1.92069V1.92069Z" fill="#00DD80"/>
<path d="M8.27426 12.6482V13.4478C8.27426 13.5992 8.15184 13.7216 8.00044 13.7216H6.63229V15.0897C6.63229 15.2411 6.50988 15.3636 6.35892 15.3636H5.55889C5.40789 15.3636 5.28508 15.2411 5.28508 15.0897V13.7216H3.91693C3.76593 13.7216 3.64355 13.5992 3.64355 13.4478V12.6482C3.64355 12.4968 3.76597 12.3744 3.91693 12.3744H5.28508V11.0062C5.28508 10.8552 5.40789 10.7324 5.55889 10.7324H6.35892C6.50992 10.7324 6.63229 10.8552 6.63229 11.0062V12.3744H8.00044C8.15184 12.3744 8.27426 12.4968 8.27426 12.6482Z" fill="#E27F86"/>
<path d="M0.84375 9.625H1.85033V16.4727H0.84375V9.625Z" fill="#6BD9E7"/>
<path d="M4.0705 1.92057H3.06392C2.9218 1.92057 2.80664 1.80542 2.80664 1.66286V0.257277C2.80664 0.115156 2.9218 0 3.06392 0L3.9187 0.0499247C3.8547 0.0962408 3.81322 0.171901 3.81322 0.257277V1.6629C3.81322 1.80542 3.92834 1.92057 4.0705 1.92057Z" fill="#00AA63"/>
</svg>
