<svg width="17" height="14" viewBox="0 0 17 14" fill="none" xmlns="http://www.w3.org/2000/svg">
<path d="M15.1667 5.83426H3.5L7.33833 1.99592C7.44768 1.88747 7.53448 1.75843 7.59371 1.61626C7.65294 1.4741 7.68343 1.32161 7.68343 1.16759C7.68343 1.01358 7.65294 0.861088 7.59371 0.718918C7.53448 0.576749 7.44768 0.447715 7.33833 0.339258C7.11974 0.121965 6.82405 0 6.51583 0C6.20762 0 5.91192 0.121965 5.69333 0.339258L0.688334 5.35593C0.250148 5.7915 0.00260492 6.38309 0 7.00093V7.00093C0.00567769 7.61471 0.252985 8.20154 0.688334 8.63426L5.69333 13.6509C5.80211 13.7589 5.9311 13.8445 6.07293 13.9026C6.21477 13.9608 6.36666 13.9905 6.51996 13.9899C6.67325 13.9894 6.82494 13.9586 6.96636 13.8995C7.10778 13.8403 7.23616 13.7539 7.34417 13.6451C7.45218 13.5363 7.53771 13.4073 7.59587 13.2655C7.65403 13.1237 7.68369 12.9718 7.68315 12.8185C7.68261 12.6652 7.65188 12.5135 7.59272 12.3721C7.53355 12.2307 7.44711 12.1023 7.33833 11.9943L3.5 8.16759H15.1667C15.4761 8.16759 15.7728 8.04468 15.9916 7.82588C16.2104 7.60709 16.3333 7.31034 16.3333 7.00093C16.3333 6.69151 16.2104 6.39476 15.9916 6.17597C15.7728 5.95717 15.4761 5.83426 15.1667 5.83426Z" fill="#111111"/>
</svg>
