<svg width="20" height="20" viewBox="0 0 20 20" fill="none" xmlns="http://www.w3.org/2000/svg">
<g clip-path="url(#clip0_2005_9925)">
<path d="M1.25838 5.0652C1.42253 5.06498 1.5851 5.09727 1.73671 5.1602C1.88832 5.22314 2.02597 5.31547 2.14171 5.43187L8.53588 11.8252C8.72934 12.0187 8.95903 12.1722 9.21183 12.277C9.46463 12.3817 9.73558 12.4356 10.0092 12.4356C10.2828 12.4356 10.5538 12.3817 10.8066 12.277C11.0594 12.1722 11.2891 12.0187 11.4825 11.8252L17.8667 5.4402C17.982 5.32082 18.1199 5.22559 18.2725 5.16008C18.425 5.09457 18.589 5.06008 18.755 5.05864C18.9209 5.0572 19.0855 5.08883 19.2392 5.15168C19.3928 5.21453 19.5323 5.30734 19.6497 5.42471C19.7671 5.54208 19.8599 5.68164 19.9227 5.83526C19.9856 5.98888 20.0172 6.15348 20.0158 6.31946C20.0143 6.48543 19.9798 6.64945 19.9143 6.80196C19.8488 6.95447 19.7536 7.0924 19.6342 7.2077L13.25 13.5927C12.39 14.4512 11.2244 14.9333 10.0092 14.9333C8.79401 14.9333 7.62846 14.4512 6.76838 13.5927L0.374213 7.19937C0.199283 7.02455 0.0801409 6.80177 0.0318625 6.55922C-0.016416 6.31667 0.00833915 6.06525 0.102995 5.83677C0.197652 5.6083 0.357955 5.41303 0.56362 5.27569C0.769286 5.13834 1.01107 5.06509 1.25838 5.0652Z" fill="#772286"/>
</g>
<defs>
<clipPath id="clip0_2005_9925">
<rect width="20" height="20" fill="white"/>
</clipPath>
</defs>
</svg>
