<svg width="12" height="12" viewBox="0 0 12 12" fill="none" xmlns="http://www.w3.org/2000/svg">
<g clip-path="url(#clip0_2120_394)">
<path d="M8.96088 0.754247C8.96101 0.852738 8.94164 0.950281 8.90388 1.04125C8.86612 1.13221 8.81072 1.2148 8.74088 1.28425L4.90488 5.12075C4.78877 5.23682 4.69667 5.37464 4.63383 5.52632C4.57099 5.67799 4.53864 5.84057 4.53864 6.00475C4.53864 6.16893 4.57099 6.3315 4.63383 6.48318C4.69666 6.63486 4.78877 6.77267 4.90488 6.88875L8.73588 10.7192C8.80751 10.7884 8.86465 10.8712 8.90395 10.9627C8.94326 11.0542 8.96395 11.1526 8.96481 11.2522C8.96568 11.3518 8.9467 11.4505 8.90899 11.5427C8.87128 11.6349 8.81559 11.7186 8.74517 11.789C8.67475 11.8595 8.59101 11.9152 8.49884 11.9529C8.40667 11.9906 8.30791 12.0095 8.20833 12.0087C8.10874 12.0078 8.01033 11.9871 7.91882 11.9478C7.82732 11.9085 7.74456 11.8514 7.67538 11.7797L3.84438 7.94925C3.32929 7.4332 3.04 6.73387 3.04 6.00475C3.04 5.27562 3.32929 4.57629 3.84438 4.06025L7.68038 0.223746C7.78527 0.118789 7.91894 0.0473032 8.06447 0.0183362C8.21 -0.0106309 8.36085 0.00422221 8.49794 0.061016C8.63502 0.11781 8.75218 0.213992 8.83459 0.337391C8.91699 0.46079 8.96094 0.605861 8.96088 0.754247Z" fill="#772286"/>
</g>
<defs>
<clipPath id="clip0_2120_394">
<rect width="12" height="12" fill="white" transform="translate(12) rotate(90)"/>
</clipPath>
</defs>
</svg>
