<svg width="16" height="16" viewBox="0 0 16 16" fill="none" xmlns="http://www.w3.org/2000/svg">
<g clip-path="url(#clip0_2120_65)">
<path d="M11.6665 1.27734C10.9158 1.28902 10.1814 1.49858 9.53765 1.88486C8.89385 2.27114 8.36338 2.82046 7.99981 3.47734C7.63624 2.82046 7.10577 2.27114 6.46197 1.88486C5.81817 1.49858 5.08384 1.28902 4.33314 1.27734C3.13644 1.32934 2.00895 1.85285 1.197 2.7335C0.385049 3.61415 -0.0453576 4.78036 -0.000190567 5.97734C-0.000190567 9.00868 3.19048 12.3193 5.86648 14.564C6.46395 15.0661 7.21938 15.3414 7.99981 15.3414C8.78024 15.3414 9.53566 15.0661 10.1331 14.564C12.8091 12.3193 15.9998 9.00868 15.9998 5.97734C16.045 4.78036 15.6146 3.61415 14.8026 2.7335C13.9907 1.85285 12.8632 1.32934 11.6665 1.27734ZM9.27648 13.544C8.91913 13.8449 8.46698 14.0099 7.99981 14.0099C7.53264 14.0099 7.08049 13.8449 6.72314 13.544C3.29781 10.67 1.33314 7.91268 1.33314 5.97734C1.28757 5.13382 1.57739 4.3065 2.13938 3.67581C2.70138 3.04512 3.48997 2.66224 4.33314 2.61068C5.17632 2.66224 5.9649 3.04512 6.5269 3.67581C7.0889 4.3065 7.37872 5.13382 7.33314 5.97734C7.33314 6.15415 7.40338 6.32372 7.52841 6.44875C7.65343 6.57377 7.823 6.64401 7.99981 6.64401C8.17662 6.64401 8.34619 6.57377 8.47121 6.44875C8.59624 6.32372 8.66648 6.15415 8.66648 5.97734C8.6209 5.13382 8.91072 4.3065 9.47272 3.67581C10.0347 3.04512 10.8233 2.66224 11.6665 2.61068C12.5097 2.66224 13.2982 3.04512 13.8602 3.67581C14.4222 4.3065 14.712 5.13382 14.6665 5.97734C14.6665 7.91268 12.7018 10.67 9.27648 13.5413V13.544Z" fill="#772286"/>
<path d="M8.5 3.5L8 5.5L7 3L4 2L1.5 4L0.5 6.5L2.5 10L6 14L8.5 15L12.5 11.5L15.5 7L14.5 3L11.5 2L8.5 3.5Z" fill="#772286"/>
</g>
<defs>
<clipPath id="clip0_2120_65">
<rect width="16" height="16" fill="white"/>
</clipPath>
</defs>
</svg>
