<svg width="12" height="12" viewBox="0 0 12 12" fill="none" xmlns="http://www.w3.org/2000/svg">
<g clip-path="url(#clip0_2005_6831)">
<path d="M3.0395 11.2458C3.03937 11.1473 3.05874 11.0497 3.0965 10.9588C3.13426 10.8678 3.18966 10.7852 3.2595 10.7158L7.0955 6.87925C7.21161 6.76318 7.30372 6.62536 7.36655 6.47368C7.42939 6.32201 7.46174 6.15943 7.46174 5.99525C7.46174 5.83107 7.42939 5.6685 7.36655 5.51682C7.30372 5.36514 7.21161 5.22733 7.0955 5.11125L3.2645 1.28075C3.19287 1.21157 3.13573 1.12881 3.09643 1.03731C3.05712 0.945805 3.03643 0.847389 3.03557 0.747805C3.0347 0.64822 3.05368 0.54946 3.09139 0.457288C3.1291 0.365116 3.18479 0.281378 3.25521 0.210958C3.32563 0.140538 3.40937 0.0848484 3.50154 0.0471372C3.59371 0.00942705 3.69247 -0.00954917 3.79205 -0.00868324C3.89164 -0.00781826 3.99005 0.0128707 4.08156 0.0521774C4.17306 0.091485 4.25582 0.148621 4.325 0.220253L8.156 4.05075C8.67109 4.5668 8.96038 5.26613 8.96038 5.99525C8.96038 6.72437 8.67109 7.42371 8.156 7.93975L4.32 11.7763C4.21511 11.8812 4.08145 11.9527 3.93592 11.9817C3.79038 12.0106 3.63953 11.9958 3.50245 11.939C3.36536 11.8822 3.2482 11.786 3.16579 11.6626C3.08339 11.5392 3.03944 11.3941 3.0395 11.2458Z" fill="#772286"/>
</g>
<defs>
<clipPath id="clip0_2005_6831">
<rect width="12" height="12" fill="white" transform="translate(0 12) rotate(-90)"/>
</clipPath>
</defs>
</svg>
