<svg width="18" height="18" viewBox="0 0 18 18" fill="none" xmlns="http://www.w3.org/2000/svg">
<path d="M17.1444 15.73L13.9013 12.4869C14.8842 11.2002 15.4232 9.63953 15.4235 7.99268C15.4235 6.00806 14.6505 4.14209 13.2469 2.73877C11.8436 1.33545 9.97791 0.5625 7.99304 0.5625C6.00842 0.5625 4.14246 1.33545 2.73914 2.73877C-0.157837 5.63599 -0.157837 10.3499 2.73914 13.2466C4.14246 14.6501 6.00842 15.4231 7.99304 15.4231C9.63989 15.4229 11.2006 14.8838 12.4872 13.9009L15.7303 17.144C15.9254 17.3394 16.1815 17.437 16.4374 17.437C16.6932 17.437 16.9493 17.3394 17.1444 17.144C17.535 16.7537 17.535 16.1204 17.1444 15.73ZM4.1532 11.8325C2.03601 9.71533 2.03625 6.27026 4.1532 4.15283C5.17883 3.12744 6.5426 2.5625 7.99304 2.5625C9.44373 2.5625 10.8073 3.12744 11.8329 4.15283C12.8585 5.17847 13.4235 6.54224 13.4235 7.99268C13.4235 9.44336 12.8585 10.8069 11.8329 11.8325C10.8073 12.8582 9.44373 13.4231 7.99304 13.4231C6.5426 13.4231 5.17883 12.8582 4.1532 11.8325Z" fill="#772286"/>
</svg>
