<svg width="16" height="16" viewBox="0 0 16 16" fill="none" xmlns="http://www.w3.org/2000/svg">
<g clip-path="url(#clip0_2120_87)">
<path d="M0 15.3324V10.6658C0.00176457 9.07502 0.634472 7.54992 1.75931 6.42508C2.88414 5.30025 4.40924 4.66754 6 4.66577H9.22V3.60844C9.22006 3.34477 9.29829 3.08704 9.4448 2.86783C9.59131 2.64862 9.79953 2.47776 10.0431 2.37687C10.2867 2.27598 10.5548 2.24957 10.8134 2.301C11.072 2.35242 11.3095 2.47936 11.496 2.66577L15.416 6.58511C15.7909 6.96016 16.0016 7.46878 16.0016 7.99911C16.0016 8.52943 15.7909 9.03805 15.416 9.41311L11.496 13.3324C11.3095 13.5189 11.072 13.6458 10.8134 13.6972C10.5548 13.7486 10.2867 13.7222 10.0431 13.6213C9.79953 13.5204 9.59131 13.3496 9.4448 13.1304C9.29829 12.9112 9.22006 12.6534 9.22 12.3898V11.3324H5.33333C4.27279 11.3335 3.25599 11.7553 2.50608 12.5052C1.75616 13.2551 1.33439 14.2719 1.33333 15.3324C1.33333 15.5092 1.2631 15.6788 1.13807 15.8038C1.01305 15.9289 0.843478 15.9991 0.666667 15.9991C0.489856 15.9991 0.320286 15.9289 0.195262 15.8038C0.0702379 15.6788 0 15.5092 0 15.3324ZM10.5533 5.33244C10.5533 5.50925 10.4831 5.67882 10.3581 5.80384C10.233 5.92887 10.0635 5.99911 9.88667 5.99911H6C4.76276 6.00052 3.57659 6.49264 2.70173 7.3675C1.82686 8.24236 1.33474 9.42853 1.33333 10.6658V11.8084C1.83305 11.2397 2.44833 10.7842 3.1381 10.4722C3.82788 10.1602 4.57627 9.99888 5.33333 9.99911H9.88667C10.0635 9.99911 10.233 10.0693 10.3581 10.1944C10.4831 10.3194 10.5533 10.489 10.5533 10.6658V12.3898L14.4727 8.47044C14.5976 8.34542 14.6679 8.17588 14.6679 7.99911C14.6679 7.82233 14.5976 7.65279 14.4727 7.52777L10.5533 3.60844V5.33244Z" fill="#772286"/>
</g>
<defs>
<clipPath id="clip0_2120_87">
<rect width="16" height="16" fill="white"/>
</clipPath>
</defs>
</svg>
