<svg width="16" height="16" viewBox="0 0 16 16" fill="none" xmlns="http://www.w3.org/2000/svg">
<g clip-path="url(#clip0_2120_49)">
<path d="M11.667 1.27734C10.9163 1.28902 10.1819 1.49858 9.53814 1.88486C8.89434 2.27114 8.36387 2.82046 8.0003 3.47734C7.63672 2.82046 7.10625 2.27114 6.46246 1.88486C5.81866 1.49858 5.08433 1.28902 4.33363 1.27734C3.13692 1.32934 2.00944 1.85285 1.19749 2.7335C0.385537 3.61415 -0.0448693 4.78036 0.000297715 5.97734C0.000297715 9.00868 3.19096 12.3193 5.86696 14.564C6.46444 15.0661 7.21987 15.3414 8.0003 15.3414C8.78073 15.3414 9.53615 15.0661 10.1336 14.564C12.8096 12.3193 16.0003 9.00868 16.0003 5.97734C16.0455 4.78036 15.6151 3.61415 14.8031 2.7335C13.9912 1.85285 12.8637 1.32934 11.667 1.27734ZM9.27696 13.544C8.91962 13.8449 8.46747 14.0099 8.0003 14.0099C7.53313 14.0099 7.08098 13.8449 6.72363 13.544C3.2983 10.67 1.33363 7.91268 1.33363 5.97734C1.28806 5.13382 1.57788 4.3065 2.13987 3.67581C2.70187 3.04512 3.49045 2.66224 4.33363 2.61068C5.17681 2.66224 5.96539 3.04512 6.52739 3.67581C7.08939 4.3065 7.3792 5.13382 7.33363 5.97734C7.33363 6.15415 7.40387 6.32372 7.52889 6.44875C7.65392 6.57377 7.82349 6.64401 8.0003 6.64401C8.17711 6.64401 8.34668 6.57377 8.4717 6.44875C8.59673 6.32372 8.66696 6.15415 8.66696 5.97734C8.62139 5.13382 8.91121 4.3065 9.47321 3.67581C10.0352 3.04512 10.8238 2.66224 11.667 2.61068C12.5101 2.66224 13.2987 3.04512 13.8607 3.67581C14.4227 4.3065 14.7125 5.13382 14.667 5.97734C14.667 7.91268 12.7023 10.67 9.27696 13.5413V13.544Z" fill="#772286"/>
</g>
<defs>
<clipPath id="clip0_2120_49">
<rect width="16" height="16" fill="white"/>
</clipPath>
</defs>
</svg>
