<svg width="32" height="32" viewBox="0 0 32 32" fill="none" xmlns="http://www.w3.org/2000/svg">
<g clip-path="url(#clip0_2005_6829)">
<path d="M28 7.99935H6.66667C5.52133 7.99935 4.43733 7.50335 3.68667 6.66735C4.42 5.84868 5.48533 5.33268 6.66667 5.33268H30.6667C31.404 5.33268 32 4.73535 32 3.99935C32 3.26335 31.404 2.66602 30.6667 2.66602H6.66667C2.98533 2.66602 0 5.65135 0 9.33268V22.666C0 26.3473 2.98533 29.3327 6.66667 29.3327H28C30.2093 29.3327 32 27.542 32 25.3327V11.9993C32 9.79002 30.2093 7.99935 28 7.99935ZM29.3333 25.3327C29.3333 26.0674 28.736 26.666 28 26.666H6.66667C4.46133 26.666 2.66667 24.8713 2.66667 22.666V9.33002C3.80533 10.182 5.20533 10.666 6.66667 10.666H28C28.736 10.666 29.3333 11.2647 29.3333 11.9993V25.3327ZM26.6667 18.666C26.6667 19.402 26.0693 19.9993 25.3333 19.9993C24.5973 19.9993 24 19.402 24 18.666C24 17.93 24.5973 17.3327 25.3333 17.3327C26.0693 17.3327 26.6667 17.93 26.6667 18.666Z" fill="#772286"/>
</g>
<defs>
<clipPath id="clip0_2005_6829">
<rect width="32" height="32" fill="white"/>
</clipPath>
</defs>
</svg>
