<svg width="16" height="18" viewBox="0 0 16 18" fill="none" xmlns="http://www.w3.org/2000/svg">
<path d="M13.9675 0.529297H3.09129C2.56802 0.529857 2.06634 0.737975 1.69633 1.10798C1.32632 1.47799 1.11821 1.97967 1.11765 2.50294V3.70577H0.588234C0.447826 3.70577 0.313168 3.76154 0.213884 3.86083C0.1146 3.96011 0.0588226 4.09477 0.0588226 4.23518C0.0588226 4.37559 0.1146 4.51025 0.213884 4.60953C0.313168 4.70881 0.447826 4.76459 0.588234 4.76459H1.11765V6.88224H0.588234C0.447826 6.88224 0.313168 6.93802 0.213884 7.0373C0.1146 7.13658 0.0588226 7.27124 0.0588226 7.41165C0.0588226 7.55206 0.1146 7.68672 0.213884 7.786C0.313168 7.88528 0.447826 7.94106 0.588234 7.94106H1.11765V10.0587H0.588234C0.447826 10.0587 0.313168 10.1145 0.213884 10.2138C0.1146 10.3131 0.0588226 10.4477 0.0588226 10.5881C0.0588226 10.7285 0.1146 10.8632 0.213884 10.9625C0.313168 11.0618 0.447826 11.1175 0.588234 11.1175H1.11765V13.2352H0.588234C0.447826 13.2352 0.313168 13.291 0.213884 13.3902C0.1146 13.4895 0.0588226 13.6242 0.0588226 13.7646C0.0588226 13.905 0.1146 14.0397 0.213884 14.1389C0.313168 14.2382 0.447826 14.294 0.588234 14.294H1.11765V15.4968C1.11821 16.0201 1.32632 16.5218 1.69633 16.8918C2.06634 17.2618 2.56802 17.4699 3.09129 17.4705H13.9675C14.4908 17.4699 14.9925 17.2618 15.3625 16.8918C15.7325 16.5218 15.9406 16.0201 15.9412 15.4968V2.50294C15.9406 1.97967 15.7325 1.47799 15.3625 1.10798C14.9925 0.737975 14.4908 0.529857 13.9675 0.529297ZM14.8824 15.4968C14.8821 15.7394 14.7856 15.9719 14.6141 16.1434C14.4426 16.3149 14.2101 16.4114 13.9675 16.4117H3.09129C2.84875 16.4114 2.61623 16.3149 2.44473 16.1434C2.27322 15.9719 2.17675 15.7394 2.17647 15.4968V14.294H2.70588C2.84629 14.294 2.98095 14.2382 3.08023 14.1389C3.17952 14.0397 3.23529 13.905 3.23529 13.7646C3.23529 13.6242 3.17952 13.4895 3.08023 13.3902C2.98095 13.291 2.84629 13.2352 2.70588 13.2352H2.17647V11.1175H2.70588C2.84629 11.1175 2.98095 11.0618 3.08023 10.9625C3.17952 10.8632 3.23529 10.7285 3.23529 10.5881C3.23529 10.4477 3.17952 10.3131 3.08023 10.2138C2.98095 10.1145 2.84629 10.0587 2.70588 10.0587H2.17647V7.94106H2.70588C2.84629 7.94106 2.98095 7.88528 3.08023 7.786C3.17952 7.68672 3.23529 7.55206 3.23529 7.41165C3.23529 7.27124 3.17952 7.13658 3.08023 7.0373C2.98095 6.93802 2.84629 6.88224 2.70588 6.88224H2.17647V4.76459H2.70588C2.84629 4.76459 2.98095 4.70881 3.08023 4.60953C3.17952 4.51025 3.23529 4.37559 3.23529 4.23518C3.23529 4.09477 3.17952 3.96011 3.08023 3.86083C2.98095 3.76154 2.84629 3.70577 2.70588 3.70577H2.17647V2.50294C2.17675 2.2604 2.27322 2.02788 2.44473 1.85638C2.61623 1.68487 2.84875 1.5884 3.09129 1.58812H13.9675C14.2101 1.5884 14.4426 1.68487 14.6141 1.85638C14.7856 2.02788 14.8821 2.2604 14.8824 2.50294V15.4968Z" fill="#772286"/>
<path d="M8.87892 6.36328C8.00659 6.36328 7.29689 7.07298 7.29689 7.94531C7.29689 8.81764 8.00659 9.52734 8.87892 9.52734C9.75125 9.52734 10.461 8.81764 10.461 7.94531C10.461 7.07298 9.75125 6.36328 8.87892 6.36328ZM8.87892 8.47266C8.58814 8.47266 8.35158 8.23609 8.35158 7.94531C8.35158 7.65454 8.58814 7.41797 8.87892 7.41797C9.1697 7.41797 9.40627 7.65454 9.40627 7.94531C9.40627 8.23609 9.1697 8.47266 8.87892 8.47266Z" fill="#772286"/>
<path d="M8.87892 4.25391C6.84348 4.25391 5.18752 5.90987 5.18752 7.94531C5.18752 8.93675 5.75525 10.1965 6.87502 11.6895C7.67925 12.7618 8.47266 13.5583 8.50605 13.5916C8.60495 13.6905 8.73907 13.7461 8.87892 13.7461C9.01877 13.7461 9.15289 13.6905 9.25179 13.5916C9.28519 13.5583 10.0786 12.7618 10.8828 11.6895C12.0026 10.1965 12.5703 8.93675 12.5703 7.94531C12.5703 5.90987 10.9144 4.25391 8.87892 4.25391ZM8.87892 12.4547C7.90182 11.3897 6.2422 9.29872 6.2422 7.94531C6.2422 6.49143 7.42503 5.30859 8.87892 5.30859C10.3328 5.30859 11.5156 6.49143 11.5156 7.94531C11.5156 9.29876 9.85595 11.3898 8.87892 12.4547Z" fill="#772286"/>
</svg>
