<svg width="18" height="18" viewBox="0 0 18 18" fill="none" xmlns="http://www.w3.org/2000/svg">
<path d="M8.7243 12.0664C8.20965 12.0664 7.79298 12.4953 7.79298 13.01C7.79298 13.5124 8.19738 13.9536 8.7243 13.9536C9.25123 13.9536 9.6679 13.5125 9.6679 13.01C9.6679 12.4953 9.23903 12.0664 8.7243 12.0664Z" fill="#772286"/>
<path d="M8.88363 4.92188C7.22929 4.92188 6.46952 5.90221 6.46952 6.56395C6.46952 7.0419 6.87389 7.26247 7.20478 7.26247C7.86649 7.26247 7.59691 6.31888 8.84686 6.31888C9.4596 6.31888 9.94978 6.58849 9.94978 7.15219C9.94978 7.81397 9.26353 8.19383 8.85913 8.53696C8.50377 8.84331 8.03809 9.34576 8.03809 10.3996C8.03809 11.0368 8.20962 11.2207 8.71207 11.2207C9.31254 11.2207 9.43506 10.9511 9.43506 10.7183C9.43506 10.081 9.44736 9.71339 10.1213 9.18647C10.4522 8.92912 11.4938 8.09582 11.4938 6.94389C11.4938 5.79196 10.4522 4.92188 8.88363 4.92188Z" fill="#772286"/>
<path d="M9 0C4.02595 0 0 4.02528 0 9V17.2969C0 17.6852 0.314789 18 0.703125 18H9C13.974 18 18 13.9747 18 9C18 4.02595 13.9747 0 9 0ZM9 16.5938H1.40625V9C1.40625 4.80315 4.80259 1.40625 9 1.40625C13.1968 1.40625 16.5938 4.80259 16.5938 9C16.5938 13.1968 13.1974 16.5938 9 16.5938Z" fill="#772286"/>
</svg>
