<svg width="18" height="18" viewBox="0 0 18 18" fill="none" xmlns="http://www.w3.org/2000/svg">
<path d="M10.2027 12.6821C10.0187 12.6992 9.83398 12.6577 9.675 12.5634C9.55885 12.4442 9.50316 12.2786 9.52365 12.1134C9.52794 11.9759 9.54436 11.839 9.57273 11.7043C9.60019 11.5499 9.63566 11.3969 9.67908 11.2462L10.1618 9.58523C10.2116 9.4213 10.2445 9.25269 10.26 9.08204C10.26 8.89796 10.2845 8.77112 10.2845 8.6975C10.2948 8.36939 10.1547 8.05453 9.90408 7.8425C9.59579 7.60583 9.21189 7.4895 8.82408 7.51523C8.54617 7.51941 8.2704 7.56491 8.00589 7.65023C7.7168 7.74023 7.4127 7.84795 7.09362 7.97342L6.95454 8.51342C7.04862 8.48069 7.16319 8.44388 7.29408 8.40296C7.41895 8.36598 7.5484 8.34668 7.67862 8.34569C7.86129 8.3259 8.04516 8.37076 8.19816 8.4725C8.30208 8.5965 8.35084 8.75758 8.33316 8.91842C8.3327 9.05599 8.31762 9.19313 8.28816 9.3275C8.25951 9.47069 8.2227 9.62204 8.1777 9.78158L7.69089 11.4507C7.65165 11.6058 7.62026 11.7628 7.59681 11.9211C7.57769 12.0566 7.56812 12.1933 7.56816 12.3302C7.56615 12.6606 7.71722 12.9732 7.97724 13.177C8.29027 13.4174 8.67966 13.5365 9.07358 13.5125C9.35097 13.5182 9.6274 13.4781 9.89177 13.3938C10.1236 13.3147 10.4331 13.2015 10.8204 13.0543L10.9513 12.5388C10.8464 12.5823 10.7384 12.6179 10.6282 12.6452C10.4887 12.677 10.3456 12.6894 10.2027 12.6821Z" fill="#772286"/>
<path d="M10.7141 4.80718C10.4914 4.60272 10.1981 4.49271 9.89588 4.50038C9.59386 4.49355 9.30079 4.60345 9.07769 4.80718C8.66876 5.1598 8.62309 5.77718 8.97574 6.18615C9.00717 6.22261 9.04124 6.25668 9.07769 6.28811C9.54358 6.70481 10.2482 6.70481 10.714 6.28811C11.123 5.93201 11.1658 5.31185 10.8097 4.90291C10.7801 4.86885 10.7481 4.83686 10.7141 4.80718Z" fill="#772286"/>
<path d="M9 0C4.02943 0 0 4.02943 0 9C0 13.9706 4.02943 18 9 18C13.9706 18 18 13.9706 18 9C18 4.02943 13.9706 0 9 0ZM9 17.1818C4.4813 17.1818 0.818191 13.5187 0.818191 9C0.818191 4.4813 4.4813 0.818191 9 0.818191C13.5187 0.818191 17.1818 4.4813 17.1818 9C17.1818 13.5187 13.5187 17.1818 9 17.1818Z" fill="#772286"/>
</svg>
