<svg width="18" height="18" viewBox="0 0 18 18" fill="none" xmlns="http://www.w3.org/2000/svg">
<path d="M8.99194 1.50005C8.89332 1.50102 8.79585 1.5215 8.70513 1.56035C8.6144 1.59919 8.53219 1.65564 8.4632 1.72644C8.39421 1.79724 8.3398 1.88104 8.30308 1.97298C8.26635 2.06492 8.24804 2.1632 8.2492 2.26226V8.29081C8.24925 8.49078 8.32838 8.68257 8.46917 8.82395C8.60997 8.96533 8.80091 9.04472 9 9.04472C9.19909 9.04472 9.39003 8.96533 9.53083 8.82395C9.67163 8.68257 9.75075 8.49078 9.75081 8.29081V2.26226C9.75197 2.16184 9.73314 2.06218 9.69542 1.96918C9.6577 1.87617 9.60184 1.79166 9.53114 1.72064C9.46044 1.64963 9.37632 1.59356 9.28372 1.55568C9.19113 1.51779 9.09192 1.49888 8.99194 1.50005ZM13.3679 3.01123C13.3434 3.01053 13.319 3.01102 13.2946 3.0127C13.1463 3.02535 13.0051 3.08203 12.889 3.17551C12.7728 3.26899 12.687 3.39501 12.6424 3.53763C12.5978 3.68024 12.5964 3.83299 12.6385 3.97639C12.6805 4.11978 12.7641 4.24736 12.8786 4.34292C14.1779 5.45115 14.9998 7.10064 14.9999 8.95293C14.9999 12.2975 12.326 14.9933 9.00366 14.9933C5.68129 14.9933 3.0016 12.2975 3.00161 8.95293C3.00161 7.11135 3.81317 5.47307 5.09947 4.36497C5.17441 4.30073 5.23602 4.22225 5.28077 4.13409C5.32553 4.04593 5.35256 3.94978 5.36031 3.85113C5.36807 3.75247 5.3564 3.65329 5.32598 3.55917C5.29556 3.46504 5.24698 3.37786 5.18301 3.30259C5.11904 3.22732 5.04093 3.16544 4.95316 3.12049C4.86538 3.07554 4.76965 3.04835 4.67142 3.04056C4.5732 3.03277 4.47442 3.04452 4.3807 3.07508C4.28699 3.10564 4.20019 3.15442 4.12526 3.21868C2.51955 4.60193 1.50001 6.66373 1.5 8.95293C1.49999 13.1105 4.86921 16.5 9.00366 16.5C13.1381 16.5 16.5 13.1105 16.5 8.95293C16.5 6.65038 15.4704 4.58009 13.8484 3.19662C13.715 3.07983 13.5448 3.01417 13.3679 3.01123H13.3679Z" fill="#772286"/>
</svg>
