<svg width="18" height="18" viewBox="0 0 18 18" fill="none" xmlns="http://www.w3.org/2000/svg">
<path d="M15.701 3.6701L12.1854 0.154477C12.0865 0.055582 11.9524 0 11.8125 0H4.07812C3.01194 0 2.14453 0.86741 2.14453 1.93359V16.0664C2.14453 17.1326 3.01194 18 4.07812 18H13.9219C14.9881 18 15.8555 17.1326 15.8555 16.0664V4.04297C15.8555 3.90312 15.7999 3.769 15.701 3.6701ZM12.3398 1.80046L14.055 3.51562H12.3398V1.80046ZM13.9219 16.9453H4.07812C3.5935 16.9453 3.19922 16.551 3.19922 16.0664V1.93359C3.19922 1.44896 3.5935 1.05469 4.07812 1.05469H11.2852V4.04297C11.2852 4.3342 11.5213 4.57031 11.8125 4.57031H14.8008V16.0664C14.8008 16.551 14.4065 16.9453 13.9219 16.9453Z" fill="#772286"/>
<path d="M12.5156 7.10156C11.8492 7.10156 11.2501 6.7313 10.9522 6.13533L10.8779 5.98686C10.7886 5.80816 10.606 5.69531 10.4062 5.69531H7.59375C7.39399 5.69531 7.21139 5.80816 7.12206 5.98683L7.04784 6.13526C6.74986 6.7313 6.15076 7.10156 5.48438 7.10156C5.19314 7.10156 4.95703 7.33767 4.95703 7.62891V10.6382C4.95703 11.8213 5.33036 12.9485 6.03661 13.8977C6.74286 14.8469 7.71521 15.5284 8.84848 15.8684C8.89791 15.8832 8.94895 15.8906 9 15.8906C9.05105 15.8906 9.10209 15.8832 9.15152 15.8684C10.2848 15.5284 11.2571 14.8469 11.9634 13.8977C12.6696 12.9485 13.043 11.8213 13.043 10.6382V7.62891C13.043 7.33767 12.8069 7.10156 12.5156 7.10156ZM11.9883 10.6382C11.9883 12.5456 10.794 14.2025 9 14.8098C7.20601 14.2025 6.01172 12.5456 6.01172 10.6382V8.1071C6.8098 7.95646 7.50364 7.46726 7.91455 6.74996H10.0854C10.4964 7.46722 11.1902 7.95646 11.9883 8.1071V10.6382Z" fill="#772286"/>
<path d="M10.1187 9.42594L8.50282 11.0418L7.88133 10.4203C7.67542 10.2144 7.34151 10.2144 7.13556 10.4203C6.92962 10.6262 6.92962 10.9601 7.13556 11.1661L8.12992 12.1604C8.23289 12.2634 8.36786 12.3149 8.50279 12.3149C8.63772 12.3149 8.77272 12.2634 8.87566 12.1604L10.8644 10.1717C11.0703 9.96577 11.0703 9.63189 10.8644 9.42594C10.6585 9.22 10.3246 9.22 10.1187 9.42594Z" fill="#772286"/>
</svg>
