<svg width="18" height="18" viewBox="0 0 18 18" fill="none" xmlns="http://www.w3.org/2000/svg">
<path d="M17.3152 4.15846L9.36679 0.131065L9.36352 0.129412C9.00956 -0.0467909 8.58906 -0.0428534 8.23845 0.139959C8.21085 0.151631 0.68966 4.14348 0.664312 4.15979C0.254531 4.37432 0 4.79472 0 5.25741V12.7415C0 13.2042 0.254531 13.6246 0.664312 13.8391L8.23503 17.8572L8.23845 17.859C8.41725 17.9522 8.6143 17.9989 8.81139 17.9989C9.0007 17.9989 9.19009 17.9558 9.36352 17.8695L17.3152 13.8405C17.7377 13.6292 18 13.2048 18 12.7324V5.26658C18 4.79412 17.7377 4.36971 17.3152 4.15846ZM8.72708 1.0742C8.77873 1.04769 8.84043 1.04717 8.89249 1.07272L16.3326 4.84249L13.4369 6.28411L6.16317 2.43496L8.72708 1.0742ZM8.27662 16.6857L1.15699 12.907L1.15358 12.9052C1.09238 12.8733 1.0543 12.8106 1.0543 12.7415V5.73318L8.27662 9.49926V16.6857ZM8.80935 8.58797L1.62675 4.8426L5.03775 3.0323L12.2755 6.8624L8.80935 8.58797ZM16.9457 12.7324C16.9457 12.8029 16.9064 12.8662 16.8433 12.8976L9.33096 16.704V9.50604L12.7898 7.78405V9.5895C12.7898 9.88063 13.0259 10.1167 13.317 10.1167C13.6081 10.1167 13.8442 9.88063 13.8442 9.5895V7.25917L16.9457 5.71511V12.7324Z" fill="#772286"/>
</svg>
