<svg width="18" height="18" viewBox="0 0 18 18" fill="none" xmlns="http://www.w3.org/2000/svg">
<path d="M15.1875 2.25H12.9375V1.6875C12.9375 1.53832 12.8782 1.39524 12.7727 1.28975C12.6673 1.18426 12.5242 1.125 12.375 1.125C12.2258 1.125 12.0827 1.18426 11.9773 1.28975C11.8718 1.39524 11.8125 1.53832 11.8125 1.6875V2.25H6.1875V1.6875C6.1875 1.53832 6.12824 1.39524 6.02275 1.28975C5.91726 1.18426 5.77418 1.125 5.625 1.125C5.47582 1.125 5.33274 1.18426 5.22725 1.28975C5.12176 1.39524 5.0625 1.53832 5.0625 1.6875V2.25H2.8125C2.36495 2.25 1.93572 2.42779 1.61926 2.74426C1.30279 3.06072 1.125 3.48995 1.125 3.9375V15.1875C1.125 15.6351 1.30279 16.0643 1.61926 16.3807C1.93572 16.6972 2.36495 16.875 2.8125 16.875H15.1875C15.6351 16.875 16.0643 16.6972 16.3807 16.3807C16.6972 16.0643 16.875 15.6351 16.875 15.1875V3.9375C16.875 3.48995 16.6972 3.06072 16.3807 2.74426C16.0643 2.42779 15.6351 2.25 15.1875 2.25V2.25ZM2.8125 3.375H15.1875C15.3367 3.375 15.4798 3.43426 15.5852 3.53975C15.6907 3.64524 15.75 3.78832 15.75 3.9375V5.625H2.25V3.9375C2.25 3.78832 2.30926 3.64524 2.41475 3.53975C2.52024 3.43426 2.66332 3.375 2.8125 3.375V3.375ZM15.1875 15.75H2.8125C2.66332 15.75 2.52024 15.6907 2.41475 15.5852C2.30926 15.4798 2.25 15.3367 2.25 15.1875V6.75H15.75V15.1875C15.75 15.3367 15.6907 15.4798 15.5852 15.5852C15.4798 15.6907 15.3367 15.75 15.1875 15.75Z" fill="#772286"/>
<path d="M11.4469 8.57344L7.90313 11.6109L6.5835 10.2919C6.47741 10.1894 6.33532 10.1327 6.18784 10.134C6.04035 10.1353 5.89927 10.1944 5.79498 10.2987C5.69069 10.403 5.63153 10.5441 5.63025 10.6916C5.62897 10.8391 5.68566 10.9812 5.78813 11.0873L7.47563 12.7748C7.57582 12.8748 7.71006 12.9334 7.85156 12.9388C7.99305 12.9442 8.13138 12.8961 8.23894 12.804L12.1764 9.429C12.2357 9.38199 12.2849 9.32351 12.321 9.25705C12.3572 9.19059 12.3796 9.11753 12.3868 9.04222C12.3941 8.96692 12.3861 8.89093 12.3633 8.81879C12.3405 8.74665 12.3034 8.67986 12.2541 8.6224C12.2049 8.56494 12.1446 8.51799 12.0769 8.48437C12.0091 8.45075 11.9352 8.43115 11.8597 8.42674C11.7842 8.42233 11.7086 8.43319 11.6373 8.45869C11.5661 8.48419 11.5008 8.52379 11.4452 8.57513L11.4469 8.57344Z" fill="#772286"/>
</svg>
