<svg width="18" height="18" viewBox="0 0 18 18" fill="none" xmlns="http://www.w3.org/2000/svg">
<g clip-path="url(#clip0_2005_6879)">
<path d="M4.30277 5.82812H12.9115C13.2803 5.82812 13.5795 5.52895 13.5795 5.16016C13.5795 4.79137 13.2803 4.49219 12.9115 4.49219H4.30277C3.93398 4.49219 3.6348 4.79137 3.6348 5.16016C3.6348 5.52895 3.93398 5.82812 4.30277 5.82812V5.82812Z" fill="#772286"/>
<path d="M10.08 9.32422C10.08 8.95543 9.78082 8.65625 9.41203 8.65625H4.30277C3.93398 8.65625 3.6348 8.95543 3.6348 9.32422C3.6348 9.69301 3.93398 9.99219 4.30277 9.99219H9.41203C9.78082 9.99219 10.08 9.69301 10.08 9.32422Z" fill="#772286"/>
<path d="M17.1081 11.3804C17.1798 10.5954 17.228 9.68062 17.229 8.61434C17.2269 6.60797 17.0585 5.13879 16.8789 4.05914C16.5646 2.28023 14.9488 0.664453 13.1699 0.350156C12.0902 0.170508 10.6211 0.00210937 8.61434 0C6.60797 0.00210937 5.13844 0.170508 4.05879 0.350156C2.28023 0.664453 0.664453 2.28023 0.350156 4.05914C0.170508 5.13879 0.00246094 6.60797 0 8.61434C0.00246094 10.6207 0.170508 12.0902 0.350156 13.1699C0.664453 14.9488 2.28023 16.5646 4.05914 16.8789C5.13879 17.0585 6.60797 17.2266 8.61469 17.229C9.68062 17.228 10.5954 17.1798 11.3801 17.1081C12.0776 17.666 12.9621 18 13.9247 18C16.1754 18 18.0004 16.1754 18.0004 13.9247C18.0004 12.9621 17.6664 12.0776 17.1084 11.3804H17.1081ZM8.61469 15.8931C7.03195 15.8913 5.61586 15.783 4.2859 15.5623C3.69492 15.4564 3.09621 15.1249 2.60016 14.6289C2.1041 14.1328 1.77293 13.5345 1.66676 12.9431C1.44598 11.6146 1.33805 10.1985 1.33594 8.61434C1.3377 7.0309 1.44598 5.6148 1.66676 4.28555C1.77258 3.69457 2.1041 3.09621 2.60016 2.60016C3.09621 2.1041 3.69457 1.77293 4.2859 1.66676C5.61516 1.44598 7.03125 1.33805 8.61469 1.33594C10.1974 1.3377 11.6135 1.44598 12.9435 1.66676C13.5345 1.77258 14.1328 2.1041 14.6292 2.60016C15.1253 3.09621 15.4564 3.69457 15.5626 4.2859C15.7834 5.61586 15.8913 7.0316 15.8934 8.61469C15.8927 9.20883 15.8766 9.77871 15.8456 10.33C15.2733 10.0234 14.6194 9.84973 13.9247 9.84973C11.674 9.84973 9.84902 11.6743 9.84902 13.925C9.84902 14.6197 10.023 15.2733 10.3293 15.8456C9.77801 15.8766 9.20812 15.8927 8.61434 15.8931H8.61469ZM13.9247 16.6641C12.414 16.6641 11.185 15.4354 11.185 13.9247C11.185 12.414 12.414 11.1853 13.9247 11.1853C15.4354 11.1853 16.6644 12.414 16.6644 13.9247C16.6644 15.4354 15.4354 16.6641 13.9247 16.6641Z" fill="#772286"/>
<path d="M14.2833 14.7032C14.1982 14.6891 14.0825 14.6758 13.9247 14.6758C13.7668 14.6758 13.6512 14.6891 13.5661 14.7032C13.4262 14.7278 13.2989 14.8551 13.2739 14.9954C13.2599 15.0804 13.2465 15.1961 13.2465 15.3539C13.2465 15.5118 13.2599 15.6275 13.2739 15.7125C13.2986 15.8525 13.4258 15.9797 13.5661 16.0047C13.6512 16.0188 13.7668 16.0321 13.9247 16.0321C14.0825 16.0321 14.1982 16.0188 14.2833 16.0047C14.4232 15.9801 14.5505 15.8528 14.5754 15.7125C14.5895 15.6275 14.6028 15.5118 14.6028 15.3539C14.6028 15.1961 14.5895 15.0804 14.5754 14.9954C14.5508 14.8554 14.4236 14.7282 14.2833 14.7032Z" fill="#772286"/>
<path d="M13.9243 14.2609C14.2931 14.2609 14.5923 13.9618 14.5923 13.593V12.4785C14.5923 12.1097 14.2931 11.8105 13.9243 11.8105C13.5555 11.8105 13.2564 12.1097 13.2564 12.4785V13.593C13.2564 13.9618 13.5555 14.2609 13.9243 14.2609Z" fill="#772286"/>
</g>
<defs>
<clipPath id="clip0_2005_6879">
<rect width="18" height="18" fill="white"/>
</clipPath>
</defs>
</svg>
