<svg width="24" height="24" viewBox="0 0 24 24" fill="none" xmlns="http://www.w3.org/2000/svg">
<g clip-path="url(#clip0_2005_10718)">
<path d="M23.3529 10.4388C23.3524 10.4383 23.3518 10.4377 23.3513 10.4372L13.5612 0.647461C13.1439 0.22998 12.5891 0 11.9989 0C11.4088 0 10.854 0.229797 10.4365 0.647278L0.651514 10.4321C0.648218 10.4354 0.644922 10.4388 0.641626 10.4421C-0.215307 11.304 -0.213843 12.7024 0.645838 13.5621C1.0386 13.955 1.55734 14.1826 2.11196 14.2064C2.13449 14.2086 2.15719 14.2097 2.18008 14.2097H2.57028V21.4144C2.57028 22.84 3.73025 24 5.15627 24H8.98647H9.6H10.08H10.68H11.64H12.6H13.92H15.0114H18.8416C20.2676 24 21.4276 22.84 21.4276 21.4144V14.2097H21.7894C22.3794 14.2097 22.9342 13.9799 23.3518 13.5624C24.2124 12.7013 24.2128 11.3005 23.3529 10.4388Z" fill="#838383"/>
<path d="M11.9494 10.1914C11.8692 10.1056 11.7512 10.0656 11.6353 10.0848C11.5194 10.1039 11.4207 10.1797 11.3723 10.2868L8.20001 17.1747C8.05789 17.1374 7.91145 17.1114 7.75782 17.1114C6.7886 17.1114 6 17.9 6 18.8692C6 19.8384 6.7886 20.627 7.75782 20.627C8.72703 20.627 9.51563 19.8384 9.51563 18.8692C9.51563 18.58 9.43873 18.3109 9.31444 18.07L12.179 11.7807C12.4498 11.2389 12.3393 10.6085 11.9494 10.1914ZM7.75782 19.9239C7.17624 19.9239 6.70313 19.4507 6.70313 18.8692C6.70313 18.2876 7.17624 17.8145 7.75782 17.8145C8.3394 17.8145 8.81251 18.2876 8.81251 18.8692C8.81251 19.4507 8.3394 19.9239 7.75782 19.9239Z" fill="white"/>
<path d="M11.9766 17.1108C11.8229 17.1108 11.6765 17.1369 11.5344 17.1741L11.0116 16.0391L10.2535 17.7039L10.42 18.0695C10.2956 18.3104 10.2188 18.5795 10.2188 18.8687C10.2188 19.8379 11.0074 20.6265 11.9766 20.6265C12.9458 20.6265 13.7344 19.8379 13.7344 18.8687C13.7344 17.8994 12.9458 17.1108 11.9766 17.1108ZM11.9766 19.9233C11.395 19.9233 10.9219 19.4502 10.9219 18.8687C10.9219 18.2871 11.395 17.814 11.9766 17.814C12.5581 17.814 13.0313 18.2871 13.0313 18.8687C13.0313 19.4502 12.5581 19.9233 11.9766 19.9233Z" fill="white"/>
<path d="M16.9453 10.0801C16.6361 10.0801 16.524 10.0801 16.488 10.0801C16.477 10.0801 16.4731 10.0801 16.4729 10.0801C16.4073 10.0801 16.0892 10.0801 14.7891 10.0801C14.5947 10.0801 14.4375 10.2373 14.4375 10.4316C14.4375 10.626 14.5947 10.7832 14.7891 10.7832H15.8906V11.4863H14.7891C14.5947 11.4863 14.4375 11.6436 14.4375 11.8379C14.4375 12.0322 14.5947 12.1895 14.7891 12.1895H15.8906V12.8926H14.7891C14.5947 12.8926 14.4375 13.0498 14.4375 13.2441C14.4375 13.4385 14.5947 13.5957 14.7891 13.5957H15.8906V14.2988H14.7891C14.5947 14.2988 14.4375 14.4561 14.4375 14.6504C14.4375 14.8447 14.5947 15.002 14.7891 15.002H15.8906V15.7051H14.7891C14.5947 15.7051 14.4375 15.8623 14.4375 16.0567C14.4375 16.251 14.5947 16.4082 14.7891 16.4082H15.8906V17.1113H14.7891C14.5947 17.1113 14.4375 17.2686 14.4375 17.4629C14.4375 17.6572 14.5947 17.8145 14.7891 17.8145H15.8906V18.5176H14.7891C14.5947 18.5176 14.4375 18.6748 14.4375 18.8692C14.4375 19.0635 14.5947 19.2207 14.7891 19.2207H15.8906V19.9238H14.7891C14.5947 19.9238 14.4375 20.0811 14.4375 20.2754C14.4375 20.4697 14.5947 20.627 14.7891 20.627C16.0872 20.627 16.4066 20.627 16.4728 20.627C16.4845 20.627 16.4883 20.627 16.4882 20.627C16.5245 20.627 16.6369 20.627 16.9453 20.627C17.5269 20.627 18 20.1539 18 19.5723V11.1348C18 10.5532 17.5269 10.0801 16.9453 10.0801Z" fill="white"/>
<path d="M8.36217 10.2867C8.31375 10.1797 8.21506 10.1039 8.09913 10.0848C7.98321 10.0656 7.8653 10.1056 7.78507 10.1914C7.39509 10.6085 7.28459 11.2389 7.55548 11.7807L8.72625 14.3513L9.48019 12.7143L8.36217 10.2867Z" fill="white"/>
</g>
<defs>
<clipPath id="clip0_2005_10718">
<rect width="24" height="24" fill="white"/>
</clipPath>
</defs>
</svg>
