<svg width="25" height="24" viewBox="0 0 25 24" fill="none" xmlns="http://www.w3.org/2000/svg">
<g clip-path="url(#clip0_2382_2603)">
<path d="M24.1771 10.4388C24.1766 10.4383 24.176 10.4377 24.1755 10.4372L14.3854 0.647461C13.9681 0.22998 13.4133 0 12.8231 0C12.233 0 11.6782 0.229797 11.2607 0.647278L1.47573 10.4321C1.47244 10.4354 1.46914 10.4388 1.46584 10.4421C0.608911 11.304 0.610376 12.7024 1.47006 13.5621C1.86282 13.955 2.38156 14.1826 2.93618 14.2064C2.9587 14.2086 2.98141 14.2097 3.0043 14.2097H3.39449V21.4144C3.39449 22.84 4.55447 24 5.98049 24H9.81069H10.4242H10.9042H11.5042H12.4642H13.4242H14.7442H15.8356H19.6658C21.0918 24 22.2518 22.84 22.2518 21.4144V14.2097H22.6136C23.2036 14.2097 23.7584 13.9799 24.176 13.5624C25.0366 12.7013 25.037 11.3005 24.1771 10.4388Z" fill="#772286"/>
<path d="M12.7736 10.1914C12.6934 10.1056 12.5754 10.0656 12.4595 10.0848C12.3436 10.1039 12.2449 10.1797 12.1965 10.2868L9.02423 17.1747C8.88211 17.1374 8.73567 17.1114 8.58203 17.1114C7.61282 17.1114 6.82422 17.9 6.82422 18.8692C6.82422 19.8384 7.61282 20.627 8.58203 20.627C9.55125 20.627 10.3399 19.8384 10.3399 18.8692C10.3399 18.58 10.263 18.3109 10.1387 18.07L13.0032 11.7807C13.2741 11.2389 13.1636 10.6085 12.7736 10.1914ZM8.58203 19.9239C8.00046 19.9239 7.52735 19.4507 7.52735 18.8692C7.52735 18.2876 8.00046 17.8145 8.58203 17.8145C9.16361 17.8145 9.63672 18.2876 9.63672 18.8692C9.63672 19.4507 9.16361 19.9239 8.58203 19.9239Z" fill="white"/>
<path d="M12.8008 17.1108C12.6472 17.1108 12.5007 17.1369 12.3586 17.1741L11.8358 16.0391L11.0777 17.7039L11.2442 18.0695C11.1199 18.3104 11.043 18.5795 11.043 18.8687C11.043 19.8379 11.8316 20.6265 12.8008 20.6265C13.77 20.6265 14.5586 19.8379 14.5586 18.8687C14.5586 17.8994 13.77 17.1108 12.8008 17.1108ZM12.8008 19.9233C12.2192 19.9233 11.7461 19.4502 11.7461 18.8687C11.7461 18.2871 12.2192 17.814 12.8008 17.814C13.3824 17.814 13.8555 18.2871 13.8555 18.8687C13.8555 19.4502 13.3824 19.9233 12.8008 19.9233Z" fill="white"/>
<path d="M17.7695 10.0801C17.4603 10.0801 17.3482 10.0801 17.3122 10.0801C17.3012 10.0801 17.2973 10.0801 17.2971 10.0801C17.2316 10.0801 16.9135 10.0801 15.6133 10.0801C15.419 10.0801 15.2617 10.2373 15.2617 10.4316C15.2617 10.626 15.419 10.7832 15.6133 10.7832H16.7148V11.4863H15.6133C15.419 11.4863 15.2617 11.6436 15.2617 11.8379C15.2617 12.0322 15.419 12.1895 15.6133 12.1895H16.7148V12.8926H15.6133C15.419 12.8926 15.2617 13.0498 15.2617 13.2441C15.2617 13.4385 15.419 13.5957 15.6133 13.5957H16.7148V14.2988H15.6133C15.419 14.2988 15.2617 14.4561 15.2617 14.6504C15.2617 14.8447 15.419 15.002 15.6133 15.002H16.7148V15.7051H15.6133C15.419 15.7051 15.2617 15.8623 15.2617 16.0567C15.2617 16.251 15.419 16.4082 15.6133 16.4082H16.7148V17.1113H15.6133C15.419 17.1113 15.2617 17.2686 15.2617 17.4629C15.2617 17.6572 15.419 17.8145 15.6133 17.8145H16.7148V18.5176H15.6133C15.419 18.5176 15.2617 18.6748 15.2617 18.8692C15.2617 19.0635 15.419 19.2207 15.6133 19.2207H16.7148V19.9238H15.6133C15.419 19.9238 15.2617 20.0811 15.2617 20.2754C15.2617 20.4697 15.419 20.627 15.6133 20.627C16.9114 20.627 17.2308 20.627 17.2971 20.627C17.3087 20.627 17.3125 20.627 17.3125 20.627C17.3487 20.627 17.4611 20.627 17.7695 20.627C18.3511 20.627 18.8242 20.1539 18.8242 19.5723V11.1348C18.8242 10.5532 18.3511 10.0801 17.7695 10.0801Z" fill="white"/>
<path d="M9.18639 10.2867C9.13797 10.1797 9.03927 10.1039 8.92335 10.0848C8.80743 10.0656 8.68952 10.1056 8.60929 10.1914C8.21931 10.6085 8.1088 11.2389 8.3797 11.7807L9.55047 14.3513L10.3044 12.7143L9.18639 10.2867Z" fill="white"/>
</g>
<defs>
<clipPath id="clip0_2382_2603">
<rect width="24" height="24" fill="white" transform="translate(0.824219)"/>
</clipPath>
</defs>
</svg>
