<svg width="25" height="24" viewBox="0 0 25 24" fill="none" xmlns="http://www.w3.org/2000/svg">
<g clip-path="url(#clip0_2382_2588)">
<path d="M12.7229 1.67571C12.5625 1.50414 12.3266 1.42422 12.0948 1.46257C11.863 1.50086 11.6656 1.65241 11.5687 1.86649L5.22423 15.6423C4.93998 15.5678 4.64711 15.5156 4.33984 15.5156C2.40142 15.5156 0.824219 17.0928 0.824219 19.0313C0.824219 20.9697 2.40142 22.5469 4.33984 22.5469C6.27827 22.5469 7.85547 20.9697 7.85547 19.0313C7.85547 18.4529 7.70167 17.9148 7.45309 17.433L13.1821 4.85444C13.7239 3.77083 13.5029 2.50989 12.7229 1.67571ZM4.33984 21.1406C3.17669 21.1406 2.23047 20.1944 2.23047 19.0313C2.23047 17.8681 3.17669 16.9219 4.33984 16.9219C5.503 16.9219 6.44922 17.8681 6.44922 19.0313C6.44922 20.1944 5.503 21.1406 4.33984 21.1406Z" fill="#772286"/>
<path d="M12.7773 15.5166C12.4701 15.5166 12.1772 15.5688 11.893 15.6432L10.8475 13.373L9.33119 16.7028L9.66414 17.4339C9.41552 17.9157 9.26172 18.4538 9.26172 19.0322C9.26172 20.9706 10.8389 22.5478 12.7773 22.5478C14.7158 22.5478 16.293 20.9706 16.293 19.0322C16.293 17.0938 14.7158 15.5166 12.7773 15.5166ZM12.7773 21.1416C11.6142 21.1416 10.668 20.1954 10.668 19.0322C10.668 17.8691 11.6142 16.9228 12.7773 16.9228C13.9405 16.9228 14.8867 17.8691 14.8867 19.0322C14.8867 20.1954 13.9405 21.1416 12.7773 21.1416Z" fill="#772286"/>
<path d="M22.7148 1.45312C22.0964 1.45312 21.8722 1.45312 21.8003 1.45312C21.7782 1.45312 21.7704 1.45312 21.77 1.45312C21.6389 1.45312 21.0027 1.45312 18.4023 1.45312C18.0137 1.45312 17.6992 1.76761 17.6992 2.15625C17.6992 2.54489 18.0137 2.85938 18.4023 2.85938H20.6055V4.26562H18.4023C18.0137 4.26562 17.6992 4.58011 17.6992 4.96875C17.6992 5.35739 18.0137 5.67188 18.4023 5.67188H20.6055V7.07812H18.4023C18.0137 7.07812 17.6992 7.39261 17.6992 7.78125C17.6992 8.16989 18.0137 8.48438 18.4023 8.48438H20.6055V9.89062H18.4023C18.0137 9.89062 17.6992 10.2051 17.6992 10.5938C17.6992 10.9824 18.0137 11.2969 18.4023 11.2969H20.6055V12.7031H18.4023C18.0137 12.7031 17.6992 13.0176 17.6992 13.4062C17.6992 13.7949 18.0137 14.1094 18.4023 14.1094H20.6055V15.5156H18.4023C18.0137 15.5156 17.6992 15.8301 17.6992 16.2188C17.6992 16.6074 18.0137 16.9219 18.4023 16.9219H20.6055V18.3281H18.4023C18.0137 18.3281 17.6992 18.6426 17.6992 19.0312C17.6992 19.4199 18.0137 19.7344 18.4023 19.7344H20.6055V21.1406H18.4023C18.0137 21.1406 17.6992 21.4551 17.6992 21.8438C17.6992 22.2324 18.0137 22.5469 18.4023 22.5469C20.9986 22.5469 21.6374 22.5469 21.7699 22.5469C21.7932 22.5469 21.8008 22.5469 21.8007 22.5469C21.8732 22.5469 22.0981 22.5469 22.7148 22.5469C23.878 22.5469 24.8242 21.6007 24.8242 20.4375V3.5625C24.8242 2.39934 23.878 1.45312 22.7148 1.45312Z" fill="#772286"/>
<path d="M5.54856 1.86644C5.45172 1.65241 5.25433 1.50082 5.02248 1.46257C4.79064 1.42422 4.55481 1.5041 4.39436 1.67571C3.61441 2.5099 3.39339 3.77083 3.93517 4.85444L6.27672 9.99555L7.78459 6.72162L5.54856 1.86644Z" fill="#772286"/>
</g>
<defs>
<clipPath id="clip0_2382_2588">
<rect width="24" height="24" fill="white" transform="translate(0.824219)"/>
</clipPath>
</defs>
</svg>
