<svg width="24" height="24" viewBox="0 0 24 24" fill="none" xmlns="http://www.w3.org/2000/svg">
<g clip-path="url(#clip0_2366_2241)">
<path d="M11.8987 1.67571C11.7383 1.50414 11.5024 1.42422 11.2706 1.46257C11.0387 1.50086 10.8413 1.65241 10.7445 1.86649L4.40002 15.6423C4.11577 15.5678 3.82289 15.5156 3.51562 15.5156C1.5772 15.5156 0 17.0928 0 19.0313C0 20.9697 1.5772 22.5469 3.51562 22.5469C5.45405 22.5469 7.03125 20.9697 7.03125 19.0313C7.03125 18.4529 6.87745 17.9148 6.62887 17.433L12.3579 4.85444C12.8997 3.77083 12.6787 2.50989 11.8987 1.67571ZM3.51562 21.1406C2.35247 21.1406 1.40625 20.1944 1.40625 19.0313C1.40625 17.8681 2.35247 16.9219 3.51562 16.9219C4.67878 16.9219 5.625 17.8681 5.625 19.0313C5.625 20.1944 4.67878 21.1406 3.51562 21.1406Z" fill="#838383"/>
<path d="M11.9531 15.5166C11.6459 15.5166 11.353 15.5688 11.0687 15.6432L10.0232 13.373L8.50697 16.7028L8.83992 17.4339C8.5913 17.9157 8.4375 18.4538 8.4375 19.0322C8.4375 20.9706 10.0147 22.5478 11.9531 22.5478C13.8915 22.5478 15.4688 20.9706 15.4688 19.0322C15.4688 17.0938 13.8915 15.5166 11.9531 15.5166ZM11.9531 21.1416C10.79 21.1416 9.84375 20.1954 9.84375 19.0322C9.84375 17.8691 10.79 16.9228 11.9531 16.9228C13.1163 16.9228 14.0625 17.8691 14.0625 19.0322C14.0625 20.1954 13.1163 21.1416 11.9531 21.1416Z" fill="#838383"/>
<path d="M21.8906 1.45312C21.2722 1.45312 21.048 1.45312 20.976 1.45312C20.954 1.45312 20.9461 1.45312 20.9458 1.45312C20.8147 1.45312 20.1785 1.45312 17.5781 1.45312C17.1895 1.45312 16.875 1.76761 16.875 2.15625C16.875 2.54489 17.1895 2.85938 17.5781 2.85938H19.7812V4.26562H17.5781C17.1895 4.26562 16.875 4.58011 16.875 4.96875C16.875 5.35739 17.1895 5.67188 17.5781 5.67188H19.7812V7.07812H17.5781C17.1895 7.07812 16.875 7.39261 16.875 7.78125C16.875 8.16989 17.1895 8.48438 17.5781 8.48438H19.7812V9.89062H17.5781C17.1895 9.89062 16.875 10.2051 16.875 10.5938C16.875 10.9824 17.1895 11.2969 17.5781 11.2969H19.7812V12.7031H17.5781C17.1895 12.7031 16.875 13.0176 16.875 13.4062C16.875 13.7949 17.1895 14.1094 17.5781 14.1094H19.7812V15.5156H17.5781C17.1895 15.5156 16.875 15.8301 16.875 16.2188C16.875 16.6074 17.1895 16.9219 17.5781 16.9219H19.7812V18.3281H17.5781C17.1895 18.3281 16.875 18.6426 16.875 19.0312C16.875 19.4199 17.1895 19.7344 17.5781 19.7344H19.7812V21.1406H17.5781C17.1895 21.1406 16.875 21.4551 16.875 21.8438C16.875 22.2324 17.1895 22.5469 17.5781 22.5469C20.1744 22.5469 20.8132 22.5469 20.9457 22.5469C20.969 22.5469 20.9766 22.5469 20.9765 22.5469C21.049 22.5469 21.2738 22.5469 21.8906 22.5469C23.0537 22.5469 24 21.6007 24 20.4375V3.5625C24 2.39934 23.0537 1.45312 21.8906 1.45312Z" fill="#838383"/>
<path d="M4.72434 1.86644C4.6275 1.65241 4.43011 1.50082 4.19826 1.46257C3.96642 1.42422 3.73059 1.5041 3.57014 1.67571C2.79019 2.5099 2.56917 3.77083 3.11095 4.85444L5.4525 9.99555L6.96037 6.72162L4.72434 1.86644Z" fill="#838383"/>
</g>
<defs>
<clipPath id="clip0_2366_2241">
<rect width="24" height="24" fill="white"/>
</clipPath>
</defs>
</svg>
