<svg width="24" height="24" viewBox="0 0 24 24" fill="none" xmlns="http://www.w3.org/2000/svg">
<g clip-path="url(#clip0_2005_10746)">
<path d="M16.8495 17.2637H2.01819C1.63008 17.2637 1.31543 17.5783 1.31543 17.9664V21.8913C1.31543 23.0538 2.26121 23.9996 3.42372 23.9996H15.444C16.6065 23.9996 17.5522 23.0538 17.5522 21.8913V17.9664C17.5522 17.5783 17.2376 17.2637 16.8495 17.2637ZM10.9495 21.2876H8.22541C7.8373 21.2876 7.52265 20.9729 7.52265 20.5848C7.52265 20.1967 7.8373 19.882 8.22541 19.882H10.9495C11.3376 19.882 11.6522 20.1967 11.6522 20.5848C11.6522 20.9729 11.3376 21.2876 10.9495 21.2876Z" fill="#838383"/>
<path d="M16.1465 14.5563C16.1465 14.1682 15.8318 13.8535 15.4437 13.8535H3.42347C3.03535 13.8535 2.7207 14.1682 2.7207 14.5563V15.8576H16.1465V14.5563Z" fill="#838383"/>
<path d="M14.5619 12.4484C14.4149 11.4762 13.8357 10.5786 12.8642 9.82907C12.0027 9.16431 10.8076 8.60528 9.49898 8.25493C9.01323 8.12487 8.55203 8.53224 8.62113 9.03036L8.64695 9.21636C8.69624 9.57172 8.59213 9.91654 8.3539 10.1858C8.12063 10.4495 7.77955 10.5924 7.42752 10.5938L6.9487 10.5957C5.77729 10.6005 4.78414 11.3815 4.45703 12.4485H14.5619V12.4484Z" fill="#838383"/>
<path d="M22.0672 9.11713L13.5676 0.617541C13.1694 0.219309 12.64 0 12.0769 0C11.5137 0 10.9843 0.219309 10.5861 0.617541L8.96856 2.23507C8.83677 2.36686 8.7627 2.54559 8.7627 2.73197C8.7627 2.91839 8.83677 3.09712 8.96856 3.22887L19.4559 13.7162C19.5877 13.848 19.7665 13.9221 19.9528 13.9221C20.1393 13.9221 20.318 13.848 20.4497 13.7162L22.0673 12.0987C22.4655 11.7005 22.6848 11.171 22.6848 10.6079C22.6848 10.0447 22.4654 9.51531 22.0672 9.11713Z" fill="#838383"/>
</g>
<defs>
<clipPath id="clip0_2005_10746">
<rect width="24" height="24" fill="white"/>
</clipPath>
</defs>
</svg>
