<svg width="25" height="24" viewBox="0 0 25 24" fill="none" xmlns="http://www.w3.org/2000/svg">
<g clip-path="url(#clip0_2382_2620)">
<path d="M17.6737 17.2637H2.84241C2.4543 17.2637 2.13965 17.5783 2.13965 17.9664V21.8913C2.13965 23.0538 3.08543 23.9996 4.24794 23.9996H16.2682C17.4307 23.9996 18.3765 23.0538 18.3765 21.8913V17.9664C18.3765 17.5783 18.0619 17.2637 17.6737 17.2637ZM11.7737 21.2876H9.04963C8.66152 21.2876 8.34687 20.9729 8.34687 20.5848C8.34687 20.1967 8.66152 19.882 9.04963 19.882H11.7737C12.1618 19.882 12.4764 20.1967 12.4764 20.5848C12.4764 20.9729 12.1618 21.2876 11.7737 21.2876Z" fill="#772286"/>
<path d="M16.9707 14.5563C16.9707 14.1682 16.656 13.8535 16.2679 13.8535H4.24768C3.85957 13.8535 3.54492 14.1682 3.54492 14.5563V15.8576H16.9707V14.5563Z" fill="#772286"/>
<path d="M15.3861 12.4484C15.2391 11.4762 14.6599 10.5786 13.6884 9.82907C12.8269 9.16431 11.6318 8.60528 10.3232 8.25493C9.83745 8.12487 9.37625 8.53224 9.44535 9.03036L9.47117 9.21636C9.52045 9.57172 9.41635 9.91654 9.17812 10.1858C8.94485 10.4495 8.60377 10.5924 8.25173 10.5938L7.77292 10.5957C6.60151 10.6005 5.60836 11.3815 5.28125 12.4485H15.3861V12.4484Z" fill="#772286"/>
<path d="M22.8914 9.11713L14.3918 0.617541C13.9937 0.219309 13.4642 0 12.9011 0C12.3379 0 11.8085 0.219309 11.4103 0.617541L9.79278 2.23507C9.66099 2.36686 9.58691 2.54559 9.58691 2.73197C9.58691 2.91839 9.66099 3.09712 9.79278 3.22887L20.2801 13.7162C20.4119 13.848 20.5907 13.9221 20.7771 13.9221C20.9635 13.9221 21.1422 13.848 21.274 13.7162L22.8915 12.0987C23.2897 11.7005 23.509 11.171 23.509 10.6079C23.509 10.0447 23.2897 9.51531 22.8914 9.11713Z" fill="#772286"/>
</g>
<defs>
<clipPath id="clip0_2382_2620">
<rect width="24" height="24" fill="white" transform="translate(0.824219)"/>
</clipPath>
</defs>
</svg>
