<svg width="24" height="24" viewBox="0 0 24 24" fill="none" xmlns="http://www.w3.org/2000/svg">
<g clip-path="url(#clip0_2005_10753)">
<path d="M6.0177 12.7305H4.94141C4.65906 12.7305 4.40418 12.8986 4.29248 13.1575L1.31299 20.0952L8.38892 16.4812C7.54187 15.3091 6.7038 14.0164 6.0177 12.7305Z" fill="#838383"/>
<path d="M19.7073 13.1575C19.5958 12.8986 19.3408 12.7305 19.0586 12.7305H17.9823C16.6866 15.1584 14.799 17.6675 13.5982 19.048C12.7537 20.0166 11.2453 20.0155 10.4021 19.048C10.3159 18.9489 9.8656 18.4276 9.24542 17.626L7.96973 18.2778L12.7953 23.0941L21.9388 18.3538L19.7073 13.1575Z" fill="#838383"/>
<path d="M0.442563 22.1213L0.0576758 23.0176C-0.141543 23.4814 0.199766 23.9994 0.706418 23.9994H11.0682C11.133 23.9512 11.1337 23.9542 11.4816 23.7738L6.64892 18.9512L0.442563 22.1213Z" fill="#838383"/>
<path d="M23.9424 23.0189L22.4966 19.6523L14.1089 24.0007H23.2936C23.7992 24.0007 24.142 23.4836 23.9424 23.0189Z" fill="#838383"/>
<path d="M12.5328 18.0758C12.7704 17.803 18.3528 11.3456 18.3528 6.90676C18.3528 -2.24632 5.64746 -2.35801 5.64746 6.90676C5.64746 11.3456 11.2298 17.803 11.4675 18.0758C11.7489 18.3986 12.2519 18.3983 12.5328 18.0758ZM9.88251 6.34334C9.88251 5.17806 10.8325 4.23012 12.0001 4.23012C13.1676 4.23012 14.1176 5.17806 14.1176 6.34334C14.1176 7.50844 13.1676 8.45638 12.0001 8.45638C10.8325 8.45638 9.88251 7.50844 9.88251 6.34334Z" fill="#838383"/>
</g>
<defs>
<clipPath id="clip0_2005_10753">
<rect width="24" height="24" fill="white"/>
</clipPath>
</defs>
</svg>
