<svg width="25" height="24" viewBox="0 0 25 24" fill="none" xmlns="http://www.w3.org/2000/svg">
<g clip-path="url(#clip0_2382_2629)">
<path d="M6.84241 12.7305H5.76611C5.48376 12.7305 5.22888 12.8986 5.11719 13.1575L2.1377 20.0952L9.21362 16.4812C8.36658 15.3091 7.5285 14.0164 6.84241 12.7305Z" fill="#772286"/>
<path d="M20.5316 13.1575C20.42 12.8986 20.165 12.7305 19.8828 12.7305H18.8065C17.5109 15.1584 15.6232 17.6675 14.4224 19.048C13.5779 20.0166 12.0695 20.0155 11.2263 19.048C11.1401 18.9489 10.6898 18.4276 10.0696 17.626L8.79395 18.2778L13.6195 23.0941L22.7631 18.3538L20.5316 13.1575Z" fill="#772286"/>
<path d="M1.26678 22.1213L0.881895 23.0176C0.682676 23.4814 1.02398 23.9994 1.53064 23.9994H11.8924C11.9572 23.9512 11.9579 23.9542 12.3058 23.7738L7.47314 18.9512L1.26678 22.1213Z" fill="#772286"/>
<path d="M24.7661 23.0189L23.3203 19.6523L14.9326 24.0007H24.1174C24.6229 24.0007 24.9657 23.4836 24.7661 23.0189Z" fill="#772286"/>
<path d="M13.357 18.0758C13.5947 17.803 19.177 11.3456 19.177 6.90676C19.177 -2.24632 6.47168 -2.35801 6.47168 6.90676C6.47168 11.3456 12.054 17.803 12.2917 18.0758C12.5731 18.3986 13.0761 18.3983 13.357 18.0758ZM10.7067 6.34334C10.7067 5.17806 11.6567 4.23012 12.8243 4.23012C13.9918 4.23012 14.9418 5.17806 14.9418 6.34334C14.9418 7.50844 13.9918 8.45638 12.8243 8.45638C11.6567 8.45638 10.7067 7.50844 10.7067 6.34334Z" fill="#772286"/>
</g>
<defs>
<clipPath id="clip0_2382_2629">
<rect width="24" height="24" fill="white" transform="translate(0.824219)"/>
</clipPath>
</defs>
</svg>
