<svg width="18" height="18" viewBox="0 0 18 18" fill="none" xmlns="http://www.w3.org/2000/svg">
<g clip-path="url(#clip0_2005_11139)">
<path d="M15.1249 3.55621H13.0152C12.8572 2.78814 12.4393 2.09801 11.8319 1.60214C11.2244 1.10627 10.4646 0.834974 9.68045 0.833984L8.31934 0.833984C7.5352 0.834974 6.77537 1.10627 6.16793 1.60214C5.56049 2.09801 5.14257 2.78814 4.98461 3.55621H2.87489C2.6944 3.55621 2.52129 3.62791 2.39367 3.75554C2.26604 3.88317 2.19434 4.05627 2.19434 4.23676C2.19434 4.41726 2.26604 4.59036 2.39367 4.71799C2.52129 4.84562 2.6944 4.91732 2.87489 4.91732H3.55545V13.7645C3.55653 14.6667 3.91538 15.5316 4.55329 16.1695C5.1912 16.8074 6.05608 17.1662 6.95823 17.1673H11.0416C11.9437 17.1662 12.8086 16.8074 13.4465 16.1695C14.0844 15.5316 14.4433 14.6667 14.4443 13.7645V4.91732H15.1249C15.3054 4.91732 15.4785 4.84562 15.6061 4.71799C15.7337 4.59036 15.8054 4.41726 15.8054 4.23676C15.8054 4.05627 15.7337 3.88317 15.6061 3.75554C15.4785 3.62791 15.3054 3.55621 15.1249 3.55621ZM8.31934 2.1951H9.68045C10.1026 2.19561 10.5142 2.3267 10.8589 2.57038C11.2036 2.81407 11.4645 3.15842 11.6057 3.55621H6.39404C6.53532 3.15842 6.79619 2.81407 7.14088 2.57038C7.48557 2.3267 7.89721 2.19561 8.31934 2.1951ZM13.0832 13.7645C13.0832 14.306 12.8681 14.8253 12.4852 15.2082C12.1023 15.5911 11.583 15.8062 11.0416 15.8062H6.95823C6.41674 15.8062 5.89744 15.5911 5.51455 15.2082C5.13166 14.8253 4.91656 14.306 4.91656 13.7645V4.91732H13.0832V13.7645Z" fill="#772286"/>
<path d="M7.63881 13.0831C7.8193 13.0831 7.9924 13.0114 8.12003 12.8838C8.24766 12.7562 8.31936 12.5831 8.31936 12.4026V8.31923C8.31936 8.13873 8.24766 7.96563 8.12003 7.838C7.9924 7.71037 7.8193 7.63867 7.63881 7.63867C7.45831 7.63867 7.28521 7.71037 7.15758 7.838C7.02995 7.96563 6.95825 8.13873 6.95825 8.31923V12.4026C6.95825 12.5831 7.02995 12.7562 7.15758 12.8838C7.28521 13.0114 7.45831 13.0831 7.63881 13.0831Z" fill="#772286"/>
<path d="M10.361 13.0831C10.5415 13.0831 10.7146 13.0114 10.8422 12.8838C10.9698 12.7562 11.0415 12.5831 11.0415 12.4026V8.31923C11.0415 8.13873 10.9698 7.96563 10.8422 7.838C10.7146 7.71037 10.5415 7.63867 10.361 7.63867C10.1805 7.63867 10.0074 7.71037 9.87975 7.838C9.75212 7.96563 9.68042 8.13873 9.68042 8.31923V12.4026C9.68042 12.5831 9.75212 12.7562 9.87975 12.8838C10.0074 13.0114 10.1805 13.0831 10.361 13.0831Z" fill="#772286"/>
</g>
<defs>
<clipPath id="clip0_2005_11139">
<rect width="16.3333" height="16.3333" fill="white" transform="translate(0.833252 0.833984)"/>
</clipPath>
</defs>
</svg>
