<svg width="22" height="22" viewBox="0 0 22 22" fill="none" xmlns="http://www.w3.org/2000/svg">
<path d="M21.2966 17.2354H0.703441C0.314918 17.2354 0 16.9204 0 16.5319V5.46516C0 5.07668 0.314918 4.76172 0.703441 4.76172H21.2966C21.685 4.76172 22 5.07664 22 5.46516V16.5319C22 16.9204 21.6851 17.2354 21.2966 17.2354Z" fill="#5EA570"/>
<path d="M21.2968 4.76172H20.3662C20.7547 4.76172 21.0697 5.07664 21.0697 5.46516V16.5319C21.0697 16.9204 20.7547 17.2354 20.3662 17.2354H21.2968C21.6853 17.2354 22.0002 16.9204 22.0002 16.5319V5.46516C22.0002 5.07668 21.6853 4.76172 21.2968 4.76172Z" fill="#528E61"/>
<path d="M19.547 13.6514C19.6067 13.6465 19.6525 13.5967 19.6525 13.5368V8.4612C19.6525 8.40135 19.6066 8.35142 19.547 8.34652C18.9275 8.29569 18.4338 7.80125 18.3839 7.18151C18.3792 7.12298 18.3305 7.07812 18.2717 7.07812H3.73025C3.67039 7.07812 3.62046 7.12402 3.61556 7.18366C3.56477 7.80236 3.07141 8.29573 2.4527 8.34652C2.39293 8.35142 2.34717 8.40126 2.34717 8.4612V13.5368C2.34717 13.5966 2.39306 13.6465 2.4527 13.6514C3.07141 13.7022 3.56477 14.1956 3.61556 14.8143C3.62046 14.8741 3.6703 14.9198 3.73025 14.9198H18.2694C18.3293 14.9198 18.3792 14.8739 18.3841 14.8143C18.4349 14.1956 18.9283 13.7022 19.547 13.6514Z" fill="#8BC852"/>
<path d="M19.5469 8.34648C18.9274 8.29564 18.4337 7.8012 18.3838 7.18151C18.3791 7.12298 18.3304 7.07812 18.2716 7.07812H17.1508C17.2095 7.07812 17.2582 7.12298 17.2629 7.18151C17.3128 7.80125 17.8065 8.29564 18.426 8.34648C18.4856 8.35138 18.5315 8.4013 18.5315 8.46116V13.5367C18.5315 13.5967 18.4858 13.6465 18.426 13.6514C17.8073 13.7022 17.3139 14.1956 17.2631 14.8143C17.2582 14.8739 17.2083 14.9198 17.1484 14.9198H18.2693C18.3292 14.9198 18.3791 14.8739 18.384 14.8143C18.4348 14.1956 18.9282 13.7022 19.5469 13.6514C19.6066 13.6465 19.6524 13.5967 19.6524 13.5367V8.46116C19.6524 8.4013 19.6066 8.35138 19.5469 8.34648Z" fill="#7DBE3B"/>
<path d="M11 15.9815C13.752 15.9815 15.9829 13.7505 15.9829 10.9985C15.9829 8.24655 13.752 6.01562 11 6.01562C8.24802 6.01562 6.01709 8.24655 6.01709 10.9985C6.01709 13.7505 8.24802 15.9815 11 15.9815Z" fill="#CBE7AF"/>
<path d="M10.9999 6.01562C10.8164 6.01562 10.6354 6.02585 10.457 6.04519C12.9536 6.31572 14.8971 8.43004 14.8971 10.9985C14.8971 13.567 12.9536 15.6814 10.457 15.9519C10.6354 15.9712 10.8164 15.9815 10.9999 15.9815C13.7518 15.9815 15.9828 13.7505 15.9828 10.9985C15.9828 8.24656 13.7518 6.01562 10.9999 6.01562Z" fill="#AAD880"/>
<path d="M11.8235 10.1193C11.7212 10.1193 11.6366 10.1969 11.6166 10.2972C11.5512 10.6243 11.4043 10.8947 11.1759 11.1083C10.9691 11.3018 10.6826 11.445 10.3164 11.5379C10.1652 11.5762 10.0959 11.7607 10.1961 11.8802L11.697 13.6716C11.8061 13.8017 11.7135 14 11.5437 14H11.0931C11.0341 14 10.9781 13.9739 10.9401 13.9287L9.05695 11.6894C9.02068 11.6463 9.00429 11.5898 9.01181 11.534L9.06925 11.1074C9.08262 11.0081 9.16732 10.9341 9.26747 10.9341H9.51852C9.66975 10.9341 9.80247 10.9278 9.91667 10.9152C10.0309 10.9027 10.1296 10.8854 10.213 10.8634C10.2994 10.8383 10.3735 10.8085 10.4352 10.7739C10.4969 10.7363 10.554 10.6939 10.6065 10.6468C10.691 10.5647 10.757 10.4656 10.8045 10.3495C10.8517 10.2339 10.7554 10.1193 10.6306 10.1193H9.2C9.08954 10.1193 9 10.0298 9 9.91931V9.63171C9 9.52125 9.08954 9.43171 9.2 9.43171H10.6168C10.7431 9.43171 10.8407 9.31366 10.7855 9.20003C10.7719 9.17204 10.757 9.14565 10.7407 9.12088C10.6883 9.03297 10.6188 8.95447 10.5324 8.8854C10.446 8.81633 10.3318 8.76609 10.1898 8.73469C10.0509 8.7033 9.8642 8.6876 9.62963 8.6876H9.2C9.08954 8.6876 9 8.59806 9 8.4876V8.2C9 8.08954 9.08954 8 9.2 8H12.8C12.9105 8 13 8.08954 13 8.2V8.4876C13 8.59805 12.9105 8.6876 12.8 8.6876H11.6363C11.506 8.6876 11.4278 8.88428 11.4907 8.99843C11.5366 9.08164 11.5735 9.17141 11.6013 9.26775C11.6283 9.36119 11.7099 9.43171 11.8072 9.43171H12.8C12.9105 9.43171 13 9.52125 13 9.63171V9.91931C13 10.0298 12.9105 10.1193 12.8 10.1193H11.8235Z" fill="#5EA570"/>
</svg>
