<svg width="32" height="16" viewBox="0 0 32 16" fill="none" xmlns="http://www.w3.org/2000/svg">
<g clip-path="url(#clip0_2005_10679)">
<path d="M29.6464 3.35167L27.7405 3.35101C27.5326 3.35101 27.3641 3.51987 27.364 3.7282L27.3639 3.99463H27.4961C28.3567 3.99463 28.6768 4.13687 28.6768 4.9224V6.03911L29.6454 6.03944C29.8533 6.03956 30.0218 5.87081 30.0219 5.66248L30.0226 3.72898C30.0226 3.52065 29.8542 3.35179 29.6464 3.35167ZM19.2445 6.35355C19.1565 6.2429 18.9902 6.22759 18.8235 6.22759H18.6985C18.283 6.22759 18.12 6.35599 18.0281 6.75546L16.8736 11.564C16.7296 12.1549 16.5271 12.2629 16.1807 12.2629C15.7565 12.2629 15.5867 12.1615 15.4176 11.5617L14.11 6.75313C14.0018 6.35044 13.8422 6.22759 13.4266 6.22759H13.3153C13.1475 6.22759 12.9805 6.24312 12.8947 6.35521C12.8089 6.46741 12.8379 6.63494 12.8821 6.79958L14.2035 11.6498C14.4514 12.578 14.746 13.3464 15.8469 13.3464C16.0524 13.3464 16.2424 13.3178 16.4005 13.2643C16.0666 14.3166 15.727 14.7807 14.7253 14.8838C14.5221 14.9008 14.39 14.93 14.3164 15.0289C14.2399 15.1314 14.2573 15.2783 14.2846 15.4095L14.3122 15.5339C14.3719 15.8215 14.4738 15.9998 14.796 15.9998C14.8299 15.9998 14.8663 15.998 14.9053 15.9947C16.401 15.8966 17.2024 15.0896 17.6713 13.2096L19.2714 6.79615C19.3093 6.63162 19.3322 6.46409 19.2445 6.35355ZM11.1961 10.0479V11.0186C11.1961 11.8099 10.9034 12.268 9.40683 12.268C8.41813 12.268 7.9375 11.9095 7.9375 11.172C7.9375 10.3631 8.41968 10.0479 9.65722 10.0479H11.1961ZM9.40683 6.02348C8.59096 6.02348 8.07968 6.12603 7.88573 6.16495C7.5424 6.23968 7.39879 6.33414 7.39879 6.72541V6.83695C7.39879 6.99029 7.42147 7.0965 7.47004 7.17123C7.52658 7.25827 7.61775 7.30239 7.741 7.30239C7.80108 7.30239 7.87079 7.2923 7.95388 7.27146C8.15005 7.22234 8.77684 7.12078 9.46249 7.12078C10.6939 7.12078 11.1961 7.4626 11.1961 8.30047V9.04819H9.64328C7.64707 9.04819 6.71723 9.72296 6.71723 11.172C6.71723 12.5774 7.67739 13.3514 9.42078 13.3514C11.4926 13.3514 12.4164 12.6449 12.4164 11.0604V8.30047C12.4164 6.76832 11.432 6.02348 9.40683 6.02348ZM5.49341 6.95303C5.49341 8.10688 5.19944 8.7322 3.64845 8.7322H1.26101V5.75428C1.26101 5.34139 1.41425 5.18783 1.82628 5.18783H3.64845C4.81694 5.18783 5.49341 5.47677 5.49341 6.95303ZM3.64845 3.99296H1.58973C0.48961 3.99296 -0.000976562 4.48457 -0.000976562 5.58708V12.6679C-0.000976562 13.0938 0.135444 13.2305 0.560532 13.2305H0.699611C1.12459 13.2305 1.26101 13.0938 1.26101 12.6679V9.9131H3.64845C5.76814 9.9131 6.7554 8.97246 6.7554 6.95303C6.7554 4.93349 5.76814 3.99296 3.64845 3.99296ZM29.832 1.35619L28.8706 1.35586C28.7657 1.35575 28.6807 1.2706 28.6807 1.16549L28.6811 0.190149C28.6812 0.0850421 28.7663 0 28.871 0L29.8324 0.000334972C29.9373 0.000334972 30.0223 0.0855962 30.0223 0.190592L30.0219 1.16594C30.0218 1.27104 29.9369 1.35619 29.832 1.35619ZM31.7182 3.3529L30.3026 3.35234C30.1483 3.35234 30.0232 3.22683 30.0233 3.07217L30.0237 1.63615C30.0238 1.48137 30.1491 1.35597 30.3034 1.35597L31.7189 1.35653C31.8733 1.35653 31.9985 1.48203 31.9985 1.6367L31.9979 3.07283C31.9979 3.2275 31.8727 3.3529 31.7182 3.3529ZM27.7395 6.03889C27.5316 6.03889 27.3632 5.87003 27.3633 5.6617L27.3639 3.99463H27.2251C26.3646 3.99463 26.0445 4.13698 26.0445 4.92251V6.76067C26.0444 6.76455 26.0439 6.76843 26.0439 6.77231V7.17522C26.0437 7.18919 26.0428 7.20216 26.0428 7.21658V9.78494C26.0428 10.0986 25.9825 10.3484 25.858 10.5424C25.6234 10.9047 25.1588 11.0694 24.4155 11.0704C23.6725 11.0694 23.208 10.9049 22.9734 10.5429C22.8486 10.3487 22.7881 10.0988 22.7881 9.78494V7.21658C22.7881 7.20216 22.7874 7.18919 22.7872 7.17522V6.77231C22.7872 6.76843 22.7867 6.76455 22.7866 6.76067V4.92251C22.7866 4.13698 22.4665 3.99463 21.6059 3.99463H21.335C20.4743 3.99463 20.1543 4.13698 20.1543 4.92251V9.78494C20.1543 10.5671 20.3303 11.2294 20.6705 11.7632C21.3273 12.7977 22.5998 13.3486 24.4088 13.3486C24.4111 13.3486 24.4133 13.3485 24.4155 13.3485C24.4178 13.3485 24.4199 13.3486 24.4222 13.3486C26.2312 13.3486 27.5037 12.7977 28.1606 11.7632C28.5007 11.2294 28.6768 10.5671 28.6768 9.78494V6.03922L27.7395 6.03889Z" fill="#A6C307"/>
</g>
<defs>
<clipPath id="clip0_2005_10679">
<rect width="32" height="16" fill="white"/>
</clipPath>
</defs>
</svg>
