<svg width="226" height="48" viewBox="0 0 226 48" fill="none" xmlns="http://www.w3.org/2000/svg">
<g clip-path="url(#clip0_1445_45)">
<path d="M44.7251 0V48H43.0859V0H44.7251Z" fill="#CC96FC"/>
<path d="M34.2038 6.24756H3.11596C1.39506 6.24756 0 7.64801 0 9.37555V38.2412C0 39.9688 1.39506 41.3692 3.11596 41.3692H34.2038C35.9247 41.3692 37.3198 39.9688 37.3198 38.2412V9.37555C37.3198 7.64801 35.9247 6.24756 34.2038 6.24756Z" fill="#672783"/>
<path d="M7.24108 17.0591H5.59766V18.4335H7.24108V17.0591Z" fill="#FDFDFD"/>
<path d="M6.78939 15.4897H6.07422V17.2433H6.78939V15.4897Z" fill="#FDFDFD"/>
<path fill-rule="evenodd" clip-rule="evenodd" d="M5.69531 15.085C6.91807 15.1081 8.1407 15.0323 9.35134 14.8584V15.282C8.51797 15.4481 7.66926 15.524 6.81976 15.5086L6.79444 15.7203H5.69531V15.085Z" fill="#FDFDFD"/>
<path fill-rule="evenodd" clip-rule="evenodd" d="M31.996 14.5283H32.1204C32.1803 14.5283 32.2377 14.5522 32.28 14.5947C32.3224 14.6372 32.3462 14.6948 32.3462 14.7549V19.7169C32.3462 19.7731 32.3239 19.827 32.2844 19.8667C32.2448 19.9064 32.1912 19.9287 32.1352 19.9287H30.9559C30.9315 19.9307 30.907 19.9279 30.8837 19.9204C30.8604 19.9128 30.8388 19.9007 30.8201 19.8848C30.8015 19.8689 30.7862 19.8494 30.7751 19.8275C30.764 19.8056 30.7573 19.7817 30.7555 19.7572C30.7534 19.7467 30.7534 19.7359 30.7555 19.7254V16.4788C30.7597 16.0214 31.5656 14.5283 31.996 14.5283Z" fill="#CC96FC"/>
<path fill-rule="evenodd" clip-rule="evenodd" d="M29.8789 24.5007H30.0899V23.3359C30.0943 23.232 30.1392 23.134 30.215 23.063C30.2908 22.9921 30.3913 22.954 30.4949 22.9568V19.3375C30.4947 19.2614 30.5229 19.188 30.5742 19.1319C30.6254 19.0758 30.6957 19.0411 30.7713 19.0347H32.3345C32.4144 19.0352 32.4908 19.0673 32.5473 19.124C32.6037 19.1807 32.6357 19.2574 32.6362 19.3375V22.9568C32.7361 22.9585 32.8314 22.9989 32.9022 23.0695C32.973 23.1402 33.0138 23.2357 33.016 23.3359V24.5007H33.2417V30.4496H29.8789V24.5007Z" fill="#FDFDFD"/>
<path fill-rule="evenodd" clip-rule="evenodd" d="M8.65078 25.4897C8.64435 23.8838 8.79629 22.2813 9.10436 20.7055L7.94405 20.0215V20.6568H4.91669V20.0469L3.93359 20.6293C4.24126 22.2302 4.39386 23.8572 4.38928 25.4875C4.39242 27.0749 4.25119 28.6592 3.96735 30.2208H9.07271C8.78791 28.6601 8.64667 27.0764 8.65078 25.4897Z" fill="#FDFDFD"/>
<path fill-rule="evenodd" clip-rule="evenodd" d="M4.91406 20.6551H7.94142V17.7686H7.26V18.4251H5.59548V17.7686H4.91406V20.6551Z" fill="#FDFDFD"/>
<path fill-rule="evenodd" clip-rule="evenodd" d="M5.59766 18.4251H7.26217V17.7686H5.59766V18.4251Z" fill="#FDFDFD"/>
<path fill-rule="evenodd" clip-rule="evenodd" d="M5.59766 17.7685H7.26217V17.0591H6.78328V17.237H6.07655V17.0591H5.59766V17.7685Z" fill="#FDFDFD"/>
<path fill-rule="evenodd" clip-rule="evenodd" d="M6.07422 17.237H6.78095V17.0591H6.07422V17.237Z" fill="#FDFDFD"/>
<path fill-rule="evenodd" clip-rule="evenodd" d="M6.07422 17.0588H6.78095V15.7183H6.07422V17.0588Z" fill="#FDFDFD"/>
<path fill-rule="evenodd" clip-rule="evenodd" d="M6.07422 15.7185H6.78095V15.4897H6.07422V15.7185Z" fill="#FDFDFD"/>
<path fill-rule="evenodd" clip-rule="evenodd" d="M6.07505 15.4897H6.78178V15.7184H6.8071L6.83242 15.5066C7.68192 15.5221 8.53063 15.4461 9.364 15.28V14.8564C8.14924 15.0317 6.92235 15.1082 5.69531 15.0852V15.7205H6.07505V15.4897Z" fill="#FDFDFD"/>
<path fill-rule="evenodd" clip-rule="evenodd" d="M11.4232 26.1973C11.1321 26.2068 10.8473 26.2851 10.592 26.426C10.4675 26.5509 10.341 26.6526 10.2123 26.7797C9.84143 27.1839 9.6345 27.7126 9.63211 28.2621C9.59457 28.4975 9.60359 28.7381 9.65865 28.97C9.71372 29.2019 9.81375 29.4207 9.95303 29.6138C10.2343 30.0038 10.6584 30.2657 11.1321 30.3418C11.6057 30.4179 12.0901 30.302 12.4786 30.0196C12.8671 29.7373 13.1279 29.3115 13.2038 28.836C13.2294 28.6714 13.2329 28.504 13.2143 28.3384V28.2621C13.243 27.7514 13.0717 27.2497 12.7371 26.864C12.4025 26.4782 11.931 26.239 11.4232 26.1973ZM10.3135 28.2727C10.2897 27.9549 10.3925 27.6405 10.5994 27.3987C10.8062 27.1568 11.1003 27.0073 11.4169 26.983C11.6737 26.9392 11.9378 26.973 12.1754 27.0802C12.4131 27.1874 12.6137 27.363 12.7517 27.5849C12.8897 27.8067 12.9589 28.0647 12.9505 28.3261C12.9421 28.5876 12.8566 28.8406 12.7046 29.053C12.5527 29.2655 12.3413 29.4279 12.0973 29.5195C11.8533 29.6112 11.5876 29.6279 11.3341 29.5677C11.0806 29.5074 10.8506 29.3729 10.6734 29.1811C10.4962 28.9894 10.3797 28.7491 10.3388 28.4908C10.324 28.419 10.3156 28.346 10.3135 28.2727Z" fill="#FDFDFD"/>
<path fill-rule="evenodd" clip-rule="evenodd" d="M15.379 26.5254C14.9149 26.557 14.4793 26.7615 14.1577 27.0988C13.8361 27.4362 13.6517 27.882 13.6406 28.3488V28.7533C13.6517 29.2201 13.8361 29.666 14.1577 30.0033C14.4793 30.3407 14.9149 30.5452 15.379 30.5767C15.8628 30.5046 16.3046 30.2603 16.6241 29.8885C16.9435 29.5167 17.1192 29.0421 17.1192 28.5511C17.1192 28.0601 16.9435 27.5854 16.6241 27.2136C16.3046 26.8418 15.8628 26.5975 15.379 26.5254ZM14.2967 28.4759C14.3398 28.2702 14.4401 28.081 14.5859 27.9302C14.7317 27.7794 14.9171 27.6732 15.1206 27.6238C15.3241 27.5745 15.5374 27.5841 15.7357 27.6515C15.934 27.7189 16.1093 27.8413 16.2411 28.0046C16.3729 28.1679 16.4559 28.3653 16.4805 28.574C16.5051 28.7827 16.4703 28.9942 16.38 29.1838C16.2898 29.3735 16.1479 29.5336 15.9707 29.6455C15.7935 29.7575 15.5883 29.8168 15.379 29.8165C15.0595 29.7802 14.767 29.6193 14.5645 29.3685C14.3621 29.1178 14.2659 28.7972 14.2967 28.4759Z" fill="#FDFDFD"/>
<path fill-rule="evenodd" clip-rule="evenodd" d="M12.7578 22.2243C12.7747 22.3821 12.8483 22.5282 12.9648 22.6354C13.0813 22.7426 13.2327 22.8035 13.3907 22.8067H13.416C13.5107 22.8024 13.6044 22.7853 13.6945 22.7559C13.8088 22.6942 13.9043 22.6025 13.9708 22.4907C14.0373 22.3788 14.0723 22.2509 14.0721 22.1206C14.0702 21.9441 14.0012 21.775 13.8793 21.6479C13.7573 21.5207 13.5916 21.4451 13.416 21.4365C13.2932 21.4369 13.1732 21.4732 13.0705 21.5409C12.9679 21.6085 12.8871 21.7047 12.838 21.8177L12.7578 22.2243ZM13.1354 22.1735C13.1423 22.2422 13.1744 22.3059 13.2255 22.3521C13.2766 22.3983 13.343 22.4238 13.4118 22.4234C13.4555 22.4267 13.4993 22.4179 13.5384 22.398C13.5877 22.3711 13.6281 22.3303 13.6547 22.2806C13.6813 22.231 13.693 22.1746 13.6882 22.1185C13.6863 22.0565 13.6641 21.997 13.625 21.949C13.586 21.901 13.5322 21.8673 13.4722 21.8531C13.4121 21.8388 13.349 21.8449 13.2927 21.8703C13.2364 21.8957 13.1901 21.939 13.1608 21.9935L13.1354 22.1735Z" fill="#FDFDFD"/>
<path fill-rule="evenodd" clip-rule="evenodd" d="M13.6391 22.4487H14.0927C14.2423 24.1774 15.0675 25.7764 16.388 26.8961L15.3986 26.7818C14.9662 26.7878 14.5503 26.9493 14.2264 27.2368C13.9024 27.5243 13.6918 27.9189 13.6328 28.3489L13.6391 22.4487Z" fill="#FDFDFD"/>
<path fill-rule="evenodd" clip-rule="evenodd" d="M12.6822 22.6035L13.4121 23.1605L13.1864 28.6265C13.1864 28.6265 13.1104 26.9556 12.1526 26.7205C11.5919 26.5832 11.0136 26.5318 10.4375 26.568C11.6336 25.5582 12.4299 24.1518 12.6822 22.6035Z" fill="#FDFDFD"/>
<path fill-rule="evenodd" clip-rule="evenodd" d="M12.8096 15.1104L12.4805 15.0088L12.7589 22.2496V22.0971C12.7537 21.9904 12.7793 21.8845 12.8328 21.7921C12.8806 21.6904 12.9552 21.6037 13.0486 21.5414C13.1419 21.479 13.2503 21.4435 13.3623 21.4384C13.3656 21.4384 13.3689 21.4391 13.372 21.4404C13.3751 21.4416 13.3779 21.4435 13.3802 21.4459C13.3826 21.4482 13.3844 21.451 13.3857 21.4541C13.387 21.4572 13.3876 21.4605 13.3876 21.4639L13.4129 21.4384C13.5228 21.4417 13.6304 21.471 13.7269 21.524C13.8233 21.577 13.9059 21.6522 13.9678 21.7434L13.3876 18.5032L12.8096 15.1104Z" fill="#FDFDFD"/>
<path fill-rule="evenodd" clip-rule="evenodd" d="M14.372 14.8584L14.0197 14.9092L13.4648 18.0499L14.1716 21.7413L14.372 14.8584Z" fill="#FDFDFD"/>
<path d="M29.158 19.126H18.0781V30.2487H29.158V19.126Z" fill="#FCFCFC"/>
<path d="M20.9934 24.395C22.2821 24.395 23.3267 23.3463 23.3267 22.0527C23.3267 20.7591 22.2821 19.7104 20.9934 19.7104C19.7048 19.7104 18.6602 20.7591 18.6602 22.0527C18.6602 23.3463 19.7048 24.395 20.9934 24.395Z" fill="#A33BEF"/>
<path d="M26.2395 24.395C27.5282 24.395 28.5728 23.3463 28.5728 22.0527C28.5728 20.7591 27.5282 19.7104 26.2395 19.7104C24.9509 19.7104 23.9062 20.7591 23.9062 22.0527C23.9062 23.3463 24.9509 24.395 26.2395 24.395Z" fill="#CC96FC"/>
<path d="M26.2395 29.6621C27.5282 29.6621 28.5728 28.6134 28.5728 27.3198C28.5728 26.0262 27.5282 24.9775 26.2395 24.9775C24.9509 24.9775 23.9062 26.0262 23.9062 27.3198C23.9062 28.6134 24.9509 29.6621 26.2395 29.6621Z" fill="#A33BEF"/>
<path d="M20.9934 29.6621C22.2821 29.6621 23.3267 28.6134 23.3267 27.3198C23.3267 26.0262 22.2821 24.9775 20.9934 24.9775C19.7048 24.9775 18.6602 26.0262 18.6602 27.3198C18.6602 28.6134 19.7048 29.6621 20.9934 29.6621Z" fill="#CC96FC"/>
<path d="M69.468 31.8582C68.5865 32.9382 67.4795 33.8107 66.225 34.4138C64.9706 35.0169 63.5995 35.3359 62.2087 35.3483C60.7423 35.3723 59.2929 35.0318 57.9894 34.3572C56.721 33.7129 55.5851 32.8342 54.6413 31.7671C53.6988 30.6708 52.9496 29.421 52.4262 28.0715C51.9023 26.7216 51.6361 25.2847 51.6414 23.8359C51.6241 22.3393 51.8904 20.8531 52.4262 19.4563C52.9157 18.1081 53.656 16.8655 54.6076 15.7946C55.5322 14.7484 56.6563 13.8987 57.9134 13.2956C59.2033 12.6454 60.6304 12.3171 62.0737 12.3384C63.0967 12.3326 64.1162 12.4586 65.1073 12.7132C65.9717 12.9306 66.7987 13.2769 67.5609 13.7404C68.2549 14.1433 68.8791 14.6569 69.4089 15.2609C69.9218 15.8854 70.3673 16.5627 70.738 17.2813L68.987 18.444C68.3578 17.1345 67.3469 16.0481 66.0883 15.3287C64.8428 14.6574 63.4472 14.3162 62.0336 14.3376C60.8621 14.3259 59.7049 14.5952 58.6581 15.1233C57.667 15.6554 56.7873 16.3745 56.0675 17.2411C55.3434 18.1505 54.7888 19.1836 54.4304 20.2907C54.0501 21.4389 53.855 22.6408 53.8523 23.8508C53.8561 25.0885 54.0745 26.3161 54.4979 27.4786C54.923 28.5898 55.5345 29.6198 56.3059 30.524C57.0713 31.369 57.9853 32.0654 59.002 32.5782C60.0526 33.0919 61.2091 33.3495 62.3775 33.33C63.6674 33.3235 64.9385 33.0192 66.0926 32.4406C67.4057 31.7148 68.5549 30.7241 69.468 29.5307V25.7674H64.4576V24.0223H71.3435V35.2085H69.4701L69.468 31.8582Z" fill="#CC96FC"/>
<path d="M91.1493 33.2242V35.2086H75.9492V12.4951H90.8814V14.4795H78.196V22.6606H89.24V24.5412H78.196V33.2348L91.1493 33.2242Z" fill="#CC96FC"/>
<path d="M111.429 14.471H103.352V35.2086H101.136V14.471H93.0586V12.4951H111.429V14.471Z" fill="#CC96FC"/>
<path d="M115.25 35.1745V12.4526H121.455V29.7318H131.714V35.1745H115.25Z" fill="#672783"/>
<path d="M142.589 35.3462C140.965 35.3819 139.356 35.0421 137.884 34.353C135.871 33.4203 134.166 31.9292 132.97 30.0556C131.774 28.182 131.137 26.0041 131.133 23.7788C131.122 22.2874 131.409 20.8089 131.977 19.4309C133.123 16.663 135.3 14.4533 138.044 13.2724C139.52 12.6344 141.111 12.3082 142.718 12.314C144.324 12.3199 145.913 12.6576 147.384 13.3063C148.747 13.9407 149.975 14.8355 150.998 15.9408C151.982 17.0192 152.757 18.2725 153.282 19.6364C153.818 20.9841 154.095 22.4211 154.099 23.872C154.114 25.3527 153.826 26.8208 153.255 28.1859C152.693 29.5441 151.885 30.7857 150.871 31.8476C149.822 32.9143 148.584 33.776 147.221 34.389C145.764 35.0387 144.183 35.3652 142.589 35.3462ZM137.441 23.8466C137.433 24.602 137.547 25.3537 137.779 26.0724C137.971 26.7563 138.295 27.3959 138.732 27.9551C139.15 28.5241 139.7 28.9827 140.333 29.2914C141.053 29.6527 141.85 29.8288 142.654 29.8039C143.458 29.8258 144.254 29.6498 144.975 29.2914C145.603 28.9592 146.15 28.4912 146.576 27.9212C146.991 27.3285 147.302 26.6688 147.496 25.9707C147.905 24.5283 147.905 22.9996 147.496 21.5572C147.307 20.8652 146.97 20.2227 146.508 19.6745C146.072 19.1228 145.527 18.6678 144.907 18.3382C144.187 18.0103 143.404 17.8461 142.614 17.8574C141.81 17.8332 141.012 18.01 140.293 18.372C139.667 18.6915 139.12 19.1473 138.692 19.7063C138.253 20.2897 137.929 20.9517 137.736 21.6568C137.532 22.3684 137.43 23.1059 137.435 23.8466H137.441Z" fill="#672783"/>
<path d="M165.732 35.3461C164.12 35.3784 162.522 35.0386 161.062 34.3529C159.707 33.718 158.482 32.8361 157.448 31.7522C155.443 29.5835 154.324 26.7373 154.313 23.7787C154.302 22.2881 154.589 20.8105 155.157 19.433C155.724 18.0656 156.551 16.822 157.591 15.7713C158.641 14.7175 159.878 13.87 161.239 13.2723C162.651 12.6547 164.174 12.3299 165.715 12.3173C167.255 12.3046 168.783 12.6044 170.205 13.1987C171.628 13.793 172.916 14.6695 173.993 15.7757C175.07 16.8819 175.913 18.195 176.473 19.6363C177.574 22.3836 177.561 25.4543 176.437 28.1922C175.859 29.5436 175.05 30.7829 174.046 31.8539C172.991 32.9285 171.741 33.7911 170.363 34.3952C168.908 35.0497 167.327 35.3743 165.732 35.3461ZM160.619 23.8465C160.617 24.5991 160.72 25.3483 160.924 26.0723C161.132 26.7498 161.456 27.3861 161.88 27.9529C162.306 28.5141 162.854 28.971 163.481 29.2892C164.202 29.6466 164.998 29.8225 165.802 29.8017C166.615 29.8188 167.421 29.6432 168.154 29.2892C168.782 28.957 169.329 28.489 169.755 27.919C170.17 27.3259 170.482 26.6663 170.677 25.9685C170.88 25.2564 170.983 24.5193 170.983 23.7787C170.994 23.0238 170.88 22.2724 170.646 21.555C170.468 20.8653 170.142 20.2228 169.692 19.6723C169.231 19.0776 168.634 18.6026 167.952 18.2869C167.27 17.9711 166.523 17.8238 165.772 17.8573C164.98 17.8375 164.195 18.0142 163.488 18.3719C162.857 18.7005 162.3 19.1544 161.851 19.7062C161.438 20.3003 161.127 20.9595 160.931 21.6566C160.724 22.368 160.62 23.1055 160.623 23.8465H160.619Z" fill="#672783"/>
<path d="M178.719 35.1745V12.4526H184.923V21.0763L191.809 12.4526H198.83L190.615 22.6181L199.41 35.1767H192.252L186.662 26.8262L184.923 28.603V35.1682L178.719 35.1745Z" fill="#672783"/>
<path d="M210.58 12.4526H216.686V20.8349H225.038V26.9638H216.686V35.3482H210.58V26.9638H202.23V20.8349H210.58V12.4526Z" fill="#672783"/>
</g>
<defs>
<clipPath id="clip0_1445_45">
<rect width="225.039" height="48" fill="white"/>
</clipPath>
</defs>
</svg>
