<svg width="64" height="64" viewBox="0 0 64 64" fill="none" xmlns="http://www.w3.org/2000/svg">
<g clip-path="url(#clip0_3127_308)">
<path d="M32 0C14.3545 0 0 14.3545 0 32C0 49.6455 14.3545 64 32 64C49.6455 64 64 49.6455 64 32C64 14.3545 49.6455 0 32 0Z" fill="#13BF6D"/>
<path d="M48.2188 25.2168L30.8853 42.5498C30.3652 43.0698 29.6826 43.3315 29 43.3315C28.3174 43.3315 27.6348 43.0698 27.1147 42.5498L18.4482 33.8833C17.4053 32.8408 17.4053 31.1553 18.4482 30.1128C19.4907 29.0698 21.1758 29.0698 22.2188 30.1128L29 36.894L44.4482 21.4463C45.4907 20.4033 47.1758 20.4033 48.2188 21.4463C49.2612 22.4888 49.2612 24.1738 48.2188 25.2168Z" fill="white"/>
</g>
<defs>
<clipPath id="clip0_3127_308">
<rect width="64" height="64" fill="white"/>
</clipPath>
</defs>
</svg>
