<svg width="6" height="12" viewBox="0 0 6 12" fill="none" xmlns="http://www.w3.org/2000/svg">
<path d="M0.0391223 11.2458C0.0389902 11.1473 0.0583627 11.0497 0.0961222 10.9588C0.133882 10.8678 0.18928 10.7852 0.259122 10.7158L4.09512 6.87925C4.21123 6.76318 4.30333 6.62536 4.36617 6.47368C4.42901 6.32201 4.46135 6.15943 4.46135 5.99525C4.46135 5.83107 4.42901 5.6685 4.36617 5.51682C4.30333 5.36514 4.21123 5.22733 4.09512 5.11125L0.264122 1.28075C0.192489 1.21157 0.135352 1.12881 0.0960457 1.03731C0.0567389 0.945805 0.0360494 0.847389 0.0351841 0.747805C0.0343187 0.64822 0.0532948 0.54946 0.0910055 0.457288C0.128716 0.365116 0.184406 0.281378 0.254826 0.210958C0.325245 0.140538 0.408984 0.0848484 0.501156 0.0471372C0.593328 0.00942705 0.692088 -0.00954917 0.791673 -0.00868324C0.891257 -0.00781826 0.989672 0.0128707 1.08118 0.0521774C1.17268 0.091485 1.25544 0.148621 1.32462 0.220253L5.15562 4.05075C5.67071 4.5668 5.96 5.26613 5.96 5.99525C5.96 6.72437 5.67071 7.42371 5.15562 7.93975L1.31962 11.7763C1.21473 11.8812 1.08106 11.9527 0.935534 11.9817C0.790003 12.0106 0.63915 11.9958 0.502064 11.939C0.364977 11.8822 0.247818 11.786 0.165412 11.6626C0.0830052 11.5392 0.039055 11.3941 0.0391223 11.2458Z" fill="white"/>
</svg>
