<svg width="16" height="16" viewBox="0 0 16 16" fill="none" xmlns="http://www.w3.org/2000/svg">
<g clip-path="url(#clip0_2322_49)">
<path d="M9.06892 11.2736C8.90536 11.2889 8.74114 11.252 8.59983 11.1681C8.49658 11.0621 8.44708 10.915 8.4653 10.7681C8.46911 10.6459 8.4837 10.5242 8.50892 10.4045C8.53333 10.2672 8.56486 10.1313 8.60345 9.99723L9.03255 8.52086C9.0768 8.37514 9.10605 8.22526 9.11983 8.07357C9.11983 7.90995 9.14164 7.7972 9.14164 7.73176C9.15077 7.44011 9.02623 7.16023 8.80345 6.97176C8.52942 6.76139 8.18817 6.65798 7.84345 6.68086C7.59642 6.68458 7.3513 6.72501 7.11617 6.80086C6.8592 6.88086 6.58889 6.97661 6.30527 7.08814L6.18164 7.56814C6.26527 7.53904 6.36711 7.50633 6.48345 7.46995C6.59445 7.43708 6.70952 7.41992 6.82527 7.41904C6.98764 7.40145 7.15108 7.44133 7.28708 7.53176C7.37945 7.64198 7.4228 7.78517 7.40708 7.92814C7.40667 8.05042 7.39327 8.17233 7.36708 8.29176C7.34161 8.41904 7.30889 8.55358 7.26889 8.69539L6.83617 10.179C6.8013 10.3169 6.77339 10.4565 6.75255 10.5972C6.73555 10.7177 6.72705 10.8392 6.72708 10.9608C6.7253 11.2545 6.85958 11.5324 7.0907 11.7135C7.36895 11.9272 7.71508 12.0331 8.06523 12.0117C8.3118 12.0168 8.55752 11.9812 8.79252 11.9063C8.99858 11.8359 9.27373 11.7354 9.61798 11.6045L9.73436 11.1463C9.64111 11.185 9.54508 11.2165 9.44708 11.2408C9.32314 11.2691 9.19589 11.2801 9.06892 11.2736Z" fill="#772286"/>
<path d="M9.5237 4.27305C9.32579 4.0913 9.06504 3.99352 8.79642 4.00033C8.52795 3.99427 8.26745 4.09196 8.06913 4.27305C7.70563 4.58649 7.66504 5.13527 7.97851 5.4988C8.00645 5.53121 8.03673 5.56149 8.06913 5.58943C8.48326 5.95983 9.10957 5.95983 9.52367 5.58943C9.88717 5.2729 9.92526 4.72165 9.60873 4.35815C9.58242 4.32786 9.55398 4.29943 9.5237 4.27305Z" fill="#772286"/>
<path d="M8 0C3.58172 0 0 3.58172 0 8C0 12.4183 3.58172 16 8 16C12.4183 16 16 12.4183 16 8C16 3.58172 12.4183 0 8 0ZM8 15.2727C3.98338 15.2727 0.727281 12.0166 0.727281 8C0.727281 3.98338 3.98338 0.727281 8 0.727281C12.0166 0.727281 15.2727 3.98338 15.2727 8C15.2727 12.0166 12.0166 15.2727 8 15.2727Z" fill="#772286"/>
</g>
<defs>
<clipPath id="clip0_2322_49">
<rect width="16" height="16" fill="white"/>
</clipPath>
</defs>
</svg>
